<svg width="855" height="521" version="1.1" xmlns="http://www.w3.org/2000/svg" desc="Created with imagetracer.js version 1.2.6" ><path fill="rgb(22,11,7)" stroke="rgb(22,11,7)" stroke-width="1" opacity="1" d="M 607 24 Q 612.6 23 614 27.5 L 616 33.5 L 617 61.5 L 619 70.5 L 621 74 Q 626.9 74.9 629 70.5 Q 631.9 62.4 638.5 58 Q 641.1 58.7 640 56 L 642 56 L 642 54.5 Q 644.9 48 653 48 L 654 50.5 L 652 55.5 L 627 86.5 L 624 95.5 L 624 101.5 L 621.5 106 L 616.5 107 L 613 103.5 Q 611.8 96.8 607.5 93 L 593.5 84 L 572 65.5 Q 568.8 63 570 57 L 577.5 59 L 594.5 72 L 604.5 74 L 606 72.5 L 606 60.5 L 605 59.5 L 604 38.5 L 605 37.5 L 605 28.5 L 607 24 Z " /><path fill="rgb(22,11,7)" stroke="rgb(22,11,7)" stroke-width="1" opacity="1" d="M 357.5 26 L 385.5 27 L 395 31.5 Q 396 37 392.5 38 L 384.5 35 L 372 34 L 372 77.5 Q 369.7 78.8 371 83.5 L 368.5 86 L 363 85 L 363 68.5 L 364 67.5 L 364 34 L 355.5 34 L 348 36 Q 348.4 41.7 344.5 44 Q 340.8 44.8 340 42.5 L 339 36.5 L 344.5 29 L 357.5 26 Z " /><path fill="rgb(22,11,7)" stroke="rgb(22,11,7)" stroke-width="1" opacity="1" d="M 410.5 32 Q 423.9 31.1 428 39.5 Q 430.7 42.8 430 49.5 L 426.5 54 L 412.5 57 L 402 57 Q 401.6 65.2 407.5 68 L 412.5 68 L 418.5 63 L 422.5 62 L 426 64.5 Q 425.8 69.3 422.5 71 Q 417.4 75.9 406.5 75 L 397 69.5 Q 392 62.9 394 49.5 Q 396.4 39.9 403.5 35 L 410.5 32 Z M 412 39 L 410 40 Q 404 43 403 50 Q 415 52 422 48 L 420 42 Q 418 38 412 39 Z " /><path fill="rgb(22,11,7)" stroke="rgb(22,11,7)" stroke-width="1" opacity="1" d="M 477.5 32 L 483 33 L 482 40 Q 484.9 37.1 492.5 38 L 496.5 40 Q 500.2 34.2 510.5 35 L 517 39.5 L 520 47.5 L 520 65.5 L 518 75.5 L 514.5 80 L 510 79 L 511 65.5 L 512 64.5 L 512 46.5 L 508.5 42 Q 503.4 41.4 502 44.5 L 500 52.5 L 500 71.5 L 501 74.5 L 498.5 78 Q 494.8 78.8 494 76.5 L 492 71.5 L 492 54.5 Q 494.5 53 493 47.5 Q 491.8 43.8 485.5 45 L 481 51.5 L 480 56.5 L 480 78.5 L 478.5 80 Q 473.8 80.8 473 77.5 L 472 74.5 L 472 52.5 L 473 51.5 L 473 42.5 L 475 33 L 477.5 32 Z " /><path fill="rgb(22,11,7)" stroke="rgb(22,11,7)" stroke-width="1" opacity="1" d="M 444.5 35 Q 457.9 34.1 462 42.5 L 464 48.5 L 464 67.5 L 461 78.5 L 458.5 81 Q 454.8 81.8 454 79.5 Q 454.8 76.9 451.5 78 Q 449.8 80.7 443.5 79 Q 437.8 77.8 435 73.5 Q 431.5 69.5 433 60.5 L 437.5 53 Q 442 49 451.5 50 L 456 52 Q 457.1 45.3 452.5 43 L 445.5 42 L 439.5 45 Q 436.3 44.3 437 39.5 L 444.5 35 Z M 446 57 L 444 58 L 441 62 L 442 69 Q 444 74 452 72 L 456 67 L 455 60 Q 453 55 446 57 Z " /><path fill="rgb(22,11,7)" stroke="rgb(22,11,7)" stroke-width="1" opacity="1" d="M 662.5 103 Q 665.8 101.9 665 104.5 L 666 105.5 L 666 113.5 L 664 122.5 L 664 124.5 L 664 132.5 L 667.5 141 L 671.5 141 L 691.5 126 L 707.5 118 L 710.5 118 L 713 119 Q 713.2 128.8 705.5 132 Q 689.2 140.2 677 152.5 L 676 156.5 L 680.5 160 L 690.5 160 L 694.5 162 L 706.5 164 L 714 168.5 L 711.5 172 L 708.5 173 L 707.5 172 L 700.5 172 L 692.5 170 L 684.5 170 L 683.5 169 L 664.5 167 L 652.5 172 L 648.5 172 L 646 171 L 645 166.5 L 652 154.5 Q 650.3 146.3 653 142.5 L 653 140.5 L 657 110.5 L 662.5 103 Z " /><path fill="rgb(22,11,7)" stroke="rgb(22,11,7)" stroke-width="1" opacity="1" d="M 350.5 176 Q 363.4 175.6 368 183.5 Q 371 187.5 371 194.5 L 369 201.5 L 362.5 208 Q 358.1 211.1 349.5 210 Q 342.8 207.8 339 202.5 Q 335.3 198.2 337 188.5 L 343.5 179 L 350.5 176 Z " /><path fill="rgb(22,11,7)" stroke="rgb(22,11,7)" stroke-width="1" opacity="1" d="M 501.5 176 Q 513.5 175.5 518 182.5 Q 522.7 187.3 521 198.5 L 514.5 207 Q 510.3 211.3 500.5 210 Q 492.6 207.9 489 201.5 L 487 195.5 L 487 190.5 Q 488.9 182.8 494.5 179 L 501.5 176 Z " /><path fill="rgb(22,11,7)" stroke="rgb(22,11,7)" stroke-width="1" opacity="1" d="M 169.5 259 L 172 260 L 172 272.5 L 166 293.5 L 166 297.5 Q 167.5 300.5 173.5 299 L 189.5 291 L 196 290 Q 195.8 296.4 190.5 299 L 162.5 313 L 158 317.5 L 154.5 322 L 151.5 323 Q 147.9 321.1 148 315.5 Q 150.3 314.3 149 309.5 L 132 277.5 L 132 273.5 Q 133.3 270.7 134.5 273 L 139 276.5 L 146 286.5 L 150 296 Q 154.6 297.3 156 294.5 Q 161.2 284.7 162 270.5 L 165 262.5 L 167.5 260 L 169.5 259 Z " /><path fill="rgb(22,11,7)" stroke="rgb(22,11,7)" stroke-width="1" opacity="1" d="M 116.5 314 Q 119.8 312.9 119 315.5 L 121 318.5 L 121 346.5 L 120 347.5 L 120 357.5 L 123 363.5 L 123 366.5 Q 122.3 369.8 117.5 369 L 107.5 363 Q 98 364.5 92.5 362 L 90.5 362 L 73.5 362 L 70 359.5 L 71.5 356 L 76.5 355 L 98.5 355 L 101 352.5 L 98 346.5 L 84.5 333 L 79 328.5 L 76 321.5 Q 76.5 318.5 80.5 319 L 90.5 326 L 108.5 343 L 113 336.5 L 114 319.5 L 116.5 314 Z " /><path fill="rgb(244,144,12)" stroke="rgb(244,144,12)" stroke-width="1" opacity="1" d="M 433.5 70 L 436 74.5 L 429.5 80 L 427.5 80 L 418 73.5 L 421.5 71 L 432.5 71 L 433.5 70 Z " /><path fill="rgb(244,144,12)" stroke="rgb(244,144,12)" stroke-width="1" opacity="1" d="M 480.5 71 L 481 74.5 L 480 74.5 L 480.5 71 Z " /><path fill="rgb(244,144,12)" stroke="rgb(244,144,12)" stroke-width="1" opacity="1" d="M 386.5 75 L 389 75.5 L 388 76.5 L 391.5 80 L 403 83.5 Q 351.4 94.9 323 129.5 Q 304.5 150.5 295 180.5 L 293 192.5 L 291 196.5 L 291 204.5 L 290 205.5 L 290 236.5 L 286.5 253 L 278.5 245 L 276 247.5 L 258.5 274 L 251.5 260 L 245 282.5 L 244 298.5 L 243 299.5 L 243 317.5 L 244 318.5 L 245 335.5 L 249 352.5 L 257 372.5 L 255 371.5 Q 239.6 345.9 232 312.5 L 230 295.5 L 229 294.5 L 229 284.5 L 228 283.5 L 228 258.5 L 229 257.5 L 229 247.5 L 233 224.5 L 244 191.5 L 262 158.5 L 286 129 L 287.5 129 L 304.5 113 L 321.5 101 Q 339.9 89.4 362 81.5 L 362.5 77 L 363 85 L 368.5 86 Q 372.3 84.3 371.5 78 L 373.5 79 L 386.5 75 Z " /><path fill="rgb(244,144,12)" stroke="rgb(244,144,12)" stroke-width="1" opacity="1" d="M 472.5 75 L 475.5 80 Q 479.3 80.8 480 78.5 L 480.5 76 L 482.5 79 Q 508.5 85.5 528.5 98 Q 553 112.5 572 132.5 Q 598.7 159.8 614 198.5 L 620 216.5 L 625 239.5 L 626 256.5 L 627 257.5 L 627 284.5 L 626 285.5 L 626 294.5 L 625 295.5 L 624 307.5 L 620 324.5 L 614 342.5 L 608.5 354 L 608 352.5 L 612 339.5 L 613 328.5 L 614 327.5 L 615 301.5 L 614 300.5 L 613 283.5 L 608.5 268 L 605 274.5 L 602 286 Q 599.3 287.1 600 284.5 L 579.5 245 L 571 252.5 L 568 238.5 L 568 205.5 Q 565.1 200.9 566 192.5 L 559 169.5 Q 545.8 137.2 521.5 116 Q 505 101.5 483.5 92 L 466.5 86 L 454 83.5 L 466.5 80 L 469 77.5 Q 468.2 74.9 471.5 76 L 472.5 75 Z " /><path fill="rgb(244,144,12)" stroke="rgb(244,144,12)" stroke-width="1" opacity="1" d="M 498.5 176 L 501 176.5 Q 493.9 177.9 490.5 183 L 494.5 178 L 498.5 176 Z " /><path fill="rgb(244,144,12)" stroke="rgb(244,144,12)" stroke-width="1" opacity="1" d="M 345.5 177 L 347 177.5 L 344.5 179 L 345.5 177 Z " /><path fill="rgb(244,144,12)" stroke="rgb(244,144,12)" stroke-width="1" opacity="1" d="M 360.5 177 L 363 178.5 L 361.5 178 L 360.5 177 Z " /><path fill="rgb(244,144,12)" stroke="rgb(244,144,12)" stroke-width="1" opacity="1" d="M 511.5 177 L 515 179.5 L 512.5 178 L 511.5 177 Z " /><path fill="rgb(244,144,12)" stroke="rgb(244,144,12)" stroke-width="1" opacity="1" d="M 342.5 179 L 340 182.5 L 338.5 185 L 339 183.5 L 342.5 179 Z " /><path fill="rgb(244,144,12)" stroke="rgb(244,144,12)" stroke-width="1" opacity="1" d="M 364.5 179 L 367.5 183 L 364.5 179 Z " /><path fill="rgb(244,144,12)" stroke="rgb(244,144,12)" stroke-width="1" opacity="1" d="M 516.5 180 L 517.5 182 L 516.5 180 Z " /><path fill="rgb(244,144,12)" stroke="rgb(244,144,12)" stroke-width="1" opacity="1" d="M 518.5 183 L 521 187.5 L 520 187.5 L 518.5 183 Z " /><path fill="rgb(244,144,12)" stroke="rgb(244,144,12)" stroke-width="1" opacity="1" d="M 368.5 184 L 370 186.5 L 369 186.5 L 368.5 184 Z " /><path fill="rgb(244,144,12)" stroke="rgb(244,144,12)" stroke-width="1" opacity="1" d="M 489.5 184 L 489 185.5 L 488.5 187 L 488 185.5 L 489.5 184 Z " /><path fill="rgb(244,144,12)" stroke="rgb(244,144,12)" stroke-width="1" opacity="1" d="M 337.5 186 L 338 187.5 L 337 188.5 L 336.5 198 L 336 188.5 L 337.5 186 Z " /><path fill="rgb(244,144,12)" stroke="rgb(244,144,12)" stroke-width="1" opacity="1" d="M 426.5 187 L 437.5 188 L 443.5 190 L 453 196 L 453 198 Q 455.7 196.9 455 199.5 Q 464.8 207.7 464 226.5 Q 462.3 235.8 455.5 240 L 440.5 245 L 417.5 245 L 405.5 242 L 398 235.5 L 395 230.5 L 394 218.5 Q 396.3 217.2 395 212.5 L 399 203.5 L 406.5 195 L 414.5 190 L 426.5 187 Z " /><path fill="rgb(244,144,12)" stroke="rgb(244,144,12)" stroke-width="1" opacity="1" d="M 370.5 188 L 371 190.5 L 370 190.5 L 370.5 188 Z " /><path fill="rgb(244,144,12)" stroke="rgb(244,144,12)" stroke-width="1" opacity="1" d="M 521.5 189 L 522 196.5 L 521 196.5 L 521.5 189 Z " /><path fill="rgb(244,144,12)" stroke="rgb(244,144,12)" stroke-width="1" opacity="1" d="M 370.5 195 L 371 197.5 L 370 197.5 L 370.5 195 Z " /><path fill="rgb(244,144,12)" stroke="rgb(244,144,12)" stroke-width="1" opacity="1" d="M 487.5 196 L 489 200.5 L 488 200.5 L 487.5 196 Z " /><path fill="rgb(244,144,12)" stroke="rgb(244,144,12)" stroke-width="1" opacity="1" d="M 368.5 202 L 363.5 208 L 368.5 202 Z " /><path fill="rgb(244,144,12)" stroke="rgb(244,144,12)" stroke-width="1" opacity="1" d="M 489.5 202 L 494.5 208 L 489.5 202 Z " /><path fill="rgb(244,144,12)" stroke="rgb(244,144,12)" stroke-width="1" opacity="1" d="M 339.5 203 L 346 208.5 L 344.5 208 L 339.5 203 Z " /><path fill="rgb(244,144,12)" stroke="rgb(244,144,12)" stroke-width="1" opacity="1" d="M 518.5 203 L 515.5 207 L 518.5 203 Z " /><path fill="rgb(244,144,12)" stroke="rgb(244,144,12)" stroke-width="1" opacity="1" d="M 513.5 207 L 512.5 209 L 513.5 207 Z " /><path fill="rgb(244,144,12)" stroke="rgb(244,144,12)" stroke-width="1" opacity="1" d="M 351.5 210 L 356 210.5 L 351.5 211 L 351.5 210 Z " /><path fill="rgb(244,144,12)" stroke="rgb(244,144,12)" stroke-width="1" opacity="1" d="M 502.5 210 L 507 210.5 L 502.5 211 L 502.5 210 Z " /><path fill="rgb(252,247,237)" stroke="rgb(252,247,237)" stroke-width="1" opacity="1" d="M 603.5 36 L 604 38.5 L 603 38.5 L 603.5 36 Z " /><path fill="rgb(252,247,237)" stroke="rgb(252,247,237)" stroke-width="1" opacity="1" d="M 574.5 56 L 575.5 58 L 574.5 56 Z " /><path fill="rgb(252,247,237)" stroke="rgb(252,247,237)" stroke-width="1" opacity="1" d="M 409.5 64 L 412 64.5 L 409.5 65 L 409.5 64 Z " /><path fill="rgb(252,247,237)" stroke="rgb(252,247,237)" stroke-width="1" opacity="1" d="M 444.5 64 L 447 64.5 L 444.5 65 L 444.5 64 Z " /><path fill="rgb(252,247,237)" stroke="rgb(252,247,237)" stroke-width="1" opacity="1" d="M 626.5 71 L 625.5 73 L 626.5 71 Z " /><path fill="rgb(252,247,237)" stroke="rgb(252,247,237)" stroke-width="1" opacity="1" d="M 583.5 76 L 584.5 78 L 583.5 76 Z " /><path fill="rgb(252,247,237)" stroke="rgb(252,247,237)" stroke-width="1" opacity="1" d="M 635.5 78 L 634.5 80 L 635.5 78 Z " /><path fill="rgb(252,247,237)" stroke="rgb(252,247,237)" stroke-width="1" opacity="1" d="M 588.5 80 L 589.5 82 L 588.5 80 Z " /><path fill="rgb(252,247,237)" stroke="rgb(252,247,237)" stroke-width="1" opacity="1" d="M 305.5 103 L 304.5 105 L 305.5 103 Z " /><path fill="rgb(252,247,237)" stroke="rgb(252,247,237)" stroke-width="1" opacity="1" d="M 659.5 104 L 658.5 106 L 659.5 104 Z " /><path fill="rgb(252,247,237)" stroke="rgb(252,247,237)" stroke-width="1" opacity="1" d="M 301.5 106 L 300.5 108 L 301.5 106 Z " /><path fill="rgb(252,247,237)" stroke="rgb(252,247,237)" stroke-width="1" opacity="1" d="M 553.5 106 L 554.5 108 L 553.5 106 Z " /><path fill="rgb(252,247,237)" stroke="rgb(252,247,237)" stroke-width="1" opacity="1" d="M 296.5 110 L 295.5 112 L 296.5 110 Z " /><path fill="rgb(252,247,237)" stroke="rgb(252,247,237)" stroke-width="1" opacity="1" d="M 558.5 110 L 559.5 112 L 558.5 110 Z " /><path fill="rgb(252,247,237)" stroke="rgb(252,247,237)" stroke-width="1" opacity="1" d="M 666.5 114 L 667 117.5 L 666 117.5 L 666.5 114 Z " /><path fill="rgb(252,247,237)" stroke="rgb(252,247,237)" stroke-width="1" opacity="1" d="M 289.5 116 L 287.5 119 L 289.5 116 Z " /><path fill="rgb(252,247,237)" stroke="rgb(252,247,237)" stroke-width="1" opacity="1" d="M 565.5 116 L 567.5 119 L 565.5 116 Z " /><path fill="rgb(252,247,237)" stroke="rgb(252,247,237)" stroke-width="1" opacity="1" d="M 275.5 130 L 273.5 133 L 275.5 130 Z " /><path fill="rgb(252,247,237)" stroke="rgb(252,247,237)" stroke-width="1" opacity="1" d="M 579.5 130 L 581.5 133 L 579.5 130 Z " /><path fill="rgb(252,247,237)" stroke="rgb(252,247,237)" stroke-width="1" opacity="1" d="M 683.5 130 L 682.5 132 L 683.5 130 Z " /><path fill="rgb(252,247,237)" stroke="rgb(252,247,237)" stroke-width="1" opacity="1" d="M 268.5 138 L 267.5 140 L 268.5 138 Z " /><path fill="rgb(252,247,237)" stroke="rgb(252,247,237)" stroke-width="1" opacity="1" d="M 586.5 138 L 587.5 140 L 586.5 138 Z " /><path fill="rgb(252,247,237)" stroke="rgb(252,247,237)" stroke-width="1" opacity="1" d="M 264.5 143 L 263.5 145 L 264.5 143 Z " /><path fill="rgb(252,247,237)" stroke="rgb(252,247,237)" stroke-width="1" opacity="1" d="M 590.5 143 L 591.5 145 L 590.5 143 Z " /><path fill="rgb(252,247,237)" stroke="rgb(252,247,237)" stroke-width="1" opacity="1" d="M 593.5 147 L 594.5 149 L 593.5 147 Z " /><path fill="rgb(252,247,237)" stroke="rgb(252,247,237)" stroke-width="1" opacity="1" d="M 596.5 151 L 597.5 153 L 596.5 151 Z " /><path fill="rgb(252,247,237)" stroke="rgb(252,247,237)" stroke-width="1" opacity="1" d="M 598.5 154 L 599.5 156 L 598.5 154 Z " /><path fill="rgb(252,247,237)" stroke="rgb(252,247,237)" stroke-width="1" opacity="1" d="M 600.5 157 L 601.5 159 L 600.5 157 Z " /><path fill="rgb(252,247,237)" stroke="rgb(252,247,237)" stroke-width="1" opacity="1" d="M 714.5 170 L 713.5 172 L 714.5 170 Z " /><path fill="rgb(252,247,237)" stroke="rgb(252,247,237)" stroke-width="1" opacity="1" d="M 221.5 251 L 222 253.5 L 221 253.5 L 221.5 251 Z " /><path fill="rgb(252,247,237)" stroke="rgb(252,247,237)" stroke-width="1" opacity="1" d="M 633.5 251 L 634 253.5 L 633 253.5 L 633.5 251 Z " /><path fill="rgb(252,247,237)" stroke="rgb(252,247,237)" stroke-width="1" opacity="1" d="M 221.5 286 L 222 288.5 L 221 288.5 L 221.5 286 Z " /><path fill="rgb(252,247,237)" stroke="rgb(252,247,237)" stroke-width="1" opacity="1" d="M 633.5 287 L 634 290.5 L 633 290.5 L 633.5 287 Z " /><path fill="rgb(252,247,237)" stroke="rgb(252,247,237)" stroke-width="1" opacity="1" d="M 193.5 297 L 192.5 299 L 193.5 297 Z " /><path fill="rgb(252,247,237)" stroke="rgb(252,247,237)" stroke-width="1" opacity="1" d="M 113.5 317 L 114 319.5 L 113 319.5 L 113.5 317 Z " /><path fill="rgb(252,247,237)" stroke="rgb(252,247,237)" stroke-width="1" opacity="1" d="M 94.5 328 L 96.5 331 L 94.5 328 Z " /><path fill="rgb(252,247,237)" stroke="rgb(252,247,237)" stroke-width="1" opacity="1" d="M 85.5 335 L 87.5 338 L 85.5 335 Z " /><path fill="rgb(252,247,237)" stroke="rgb(252,247,237)" stroke-width="1" opacity="1" d="M 91.5 341 L 93.5 344 L 91.5 341 Z " /><path fill="rgb(252,247,237)" stroke="rgb(252,247,237)" stroke-width="1" opacity="1" d="M 69.5 360 L 70.5 362 L 69.5 360 Z " /><path fill="rgb(252,247,237)" stroke="rgb(252,247,237)" stroke-width="1" opacity="1" d="M 260.5 392 L 261.5 394 L 260.5 392 Z " /><path fill="rgb(252,247,237)" stroke="rgb(252,247,237)" stroke-width="1" opacity="1" d="M 263.5 396 L 264.5 398 L 263.5 396 Z " /><path fill="rgb(252,247,237)" stroke="rgb(252,247,237)" stroke-width="1" opacity="1" d="M 267.5 401 L 268.5 403 L 267.5 401 Z " /><path fill="rgb(252,247,237)" stroke="rgb(252,247,237)" stroke-width="1" opacity="1" d="M 582.5 407 L 580.5 410 L 582.5 407 Z " /><path fill="rgb(252,247,237)" stroke="rgb(252,247,237)" stroke-width="1" opacity="1" d="M 273.5 408 L 276.5 412 L 273.5 408 Z " /><path fill="rgb(252,247,237)" stroke="rgb(252,247,237)" stroke-width="1" opacity="1" d="M 286.5 421 L 289.5 425 L 286.5 421 Z " /><path fill="rgb(252,247,237)" stroke="rgb(252,247,237)" stroke-width="1" opacity="1" d="M 566.5 423 L 564.5 426 L 566.5 423 Z " /><path fill="rgb(252,247,237)" stroke="rgb(252,247,237)" stroke-width="1" opacity="1" d="M 295.5 429 L 296.5 431 L 295.5 429 Z " /><path fill="rgb(252,247,237)" stroke="rgb(252,247,237)" stroke-width="1" opacity="1" d="M 558.5 430 L 557.5 432 L 558.5 430 Z " /><path fill="rgb(252,247,237)" stroke="rgb(252,247,237)" stroke-width="1" opacity="1" d="M 300.5 433 L 301.5 435 L 300.5 433 Z " /><path fill="rgb(252,247,237)" stroke="rgb(252,247,237)" stroke-width="1" opacity="1" d="M 409.5 474 L 413 474.5 L 409.5 475 L 409.5 474 Z " /><path fill="rgb(252,247,237)" stroke="rgb(252,247,237)" stroke-width="1" opacity="1" d="M 446.5 474 L 449 474.5 L 446.5 475 L 446.5 474 Z " /><path fill="rgb(252,247,237)" stroke="rgb(252,247,237)" stroke-width="1" opacity="1" d="M 408.5 476 L 411 476.5 L 408.5 477 L 408.5 476 Z " /><path fill="rgb(252,247,237)" stroke="rgb(252,247,237)" stroke-width="1" opacity="1" d="M 444.5 476 L 447 476.5 L 444.5 477 L 444.5 476 Z " /><path fill="rgb(254,254,254)" stroke="rgb(254,254,254)" stroke-width="1" opacity="1" d="M 566 0 L 605.5 0 L 770 59 L 716 212.5 L 712.5 219 L 640 194 L 647.5 174 L 650.5 173 L 653.5 174 L 656 173 L 656.5 171 L 658.5 172 L 660.5 170 L 665.5 169 L 667.5 170 L 669.5 170 L 671.5 169 L 673.5 170 L 675.5 169 L 675.5 171 L 680.5 170 L 680.5 172 Q 682.8 172.8 682 170.5 L 683 170.5 Q 682.1 173.5 686.5 172 L 689.5 173 Q 697 172 700 174 L 700.5 172 L 701 174 L 703.5 173 L 710.5 175 L 710.5 174 L 708 173.5 L 710.5 173 L 712 173.5 L 712.5 172 L 715 173 L 716 169.5 L 714.5 166 L 713 166.5 Q 715.2 165.3 712.5 164 L 710.5 165 L 710.5 163 L 705.5 162 L 704 162.5 L 704.5 161 L 697.5 160 L 695.5 161 L 695.5 159 L 688.5 158 L 686.5 158 L 684.5 159 L 684.5 157 L 681.5 159 L 681.5 157 L 678.5 158 L 679 156.5 L 680 153.5 L 679.5 152 L 681 151.5 L 680.5 150 Q 682.3 152.7 684 148.5 L 685.5 146 Q 686.8 148.3 688 145.5 L 688.5 144 Q 690 146.5 691.5 143 L 693 142.5 L 692.5 141 L 694 141.5 L 695.5 139 Q 697 141.5 698.5 138 L 711 131 L 710 128.5 Q 712 130.2 714 126.5 L 713.5 125 L 715 125.5 L 714 122.5 L 715 120.5 L 714.5 118 L 712 117.5 L 712.5 116 Q 707.5 115 706.5 118 L 704.5 117 L 702 118.5 L 702.5 120 L 700.5 120 L 691 124.5 L 690.5 126 L 688.5 126 L 685.5 128 L 680 131.5 Q 682.7 133.3 678.5 135 L 676.5 135 L 675 135.5 Q 677.3 136.7 674.5 138 L 672.5 137 L 670.5 140 L 667 138.5 L 667 136.5 Q 668.3 130.8 665 129.5 L 666 127.5 L 666 125.5 L 668 114.5 L 687 63.5 L 690 54.5 L 690 50 Q 687 51 688 48 L 685.5 48 L 565 5 L 566 0 Z " /><path fill="rgb(254,254,254)" stroke="rgb(254,254,254)" stroke-width="1" opacity="1" d="M 601.5 46 L 602.5 48 Q 599.7 48.7 601.5 46 Z " /><path fill="rgb(254,254,254)" stroke="rgb(254,254,254)" stroke-width="1" opacity="1" d="M 568 55 L 570 55.5 L 568 56.5 L 568 55 Z " /><path fill="rgb(254,254,254)" stroke="rgb(254,254,254)" stroke-width="1" opacity="1" d="M 568.5 60 L 568 61.5 L 566.5 64 L 566 61 L 568.5 60 Z " /><path fill="rgb(254,254,254)" stroke="rgb(254,254,254)" stroke-width="1" opacity="1" d="M 649.5 60 L 652 60.5 L 649.5 65 L 649 62.5 L 649.5 60 Z " /><path fill="rgb(254,254,254)" stroke="rgb(254,254,254)" stroke-width="1" opacity="1" d="M 618.5 62 L 621 63.5 L 619.5 63 L 618.5 62 Z " /><path fill="rgb(254,254,254)" stroke="rgb(254,254,254)" stroke-width="1" opacity="1" d="M 629.5 66 L 628.5 68 L 629.5 66 Z " /><path fill="rgb(254,254,254)" stroke="rgb(254,254,254)" stroke-width="1" opacity="1" d="M 574.5 69 L 575.5 71 L 574.5 69 Z " /><path fill="rgb(254,254,254)" stroke="rgb(254,254,254)" stroke-width="1" opacity="1" d="M 602.5 71 L 604 71.5 L 601.5 73 L 602.5 71 Z " /><path fill="rgb(254,254,254)" stroke="rgb(254,254,254)" stroke-width="1" opacity="1" d="M 639.5 73 L 640 75 L 638 74.5 L 639.5 73 Z " /><path fill="rgb(254,254,254)" stroke="rgb(254,254,254)" stroke-width="1" opacity="1" d="M 631.5 85 L 632 86.5 L 629.5 91 L 627 89.5 L 629 89.5 L 628 87.5 L 630 87.5 L 631.5 85 Z " /><path fill="rgb(254,254,254)" stroke="rgb(254,254,254)" stroke-width="1" opacity="1" d="M 599.5 91 L 600.5 93 L 599.5 91 Z " /><path fill="rgb(254,254,254)" stroke="rgb(254,254,254)" stroke-width="1" opacity="1" d="M 605.5 93 L 604.5 95 L 605.5 93 Z " /><path fill="rgb(254,254,254)" stroke="rgb(254,254,254)" stroke-width="1" opacity="1" d="M 667.5 103 L 670 104.5 Q 668.8 107.3 667.5 105 L 666 104.5 L 667.5 103 Z " /><path fill="rgb(254,254,254)" stroke="rgb(254,254,254)" stroke-width="1" opacity="1" d="M 617.5 108 L 618.5 110 L 617.5 108 Z " /><path fill="rgb(254,254,254)" stroke="rgb(254,254,254)" stroke-width="1" opacity="1" d="M 292.5 113 L 290.5 116 L 292.5 113 Z " /><path fill="rgb(254,254,254)" stroke="rgb(254,254,254)" stroke-width="1" opacity="1" d="M 613 125 L 615 125.5 L 613 126.5 L 613 125 Z " /><path fill="rgb(254,254,254)" stroke="rgb(254,254,254)" stroke-width="1" opacity="1" d="M 627.5 132 L 629 136.5 L 628 139 L 626 139 Q 627.1 141.7 624.5 141 L 621 138.5 L 623 138 L 623 134 L 624.5 134 L 627.5 132 Z " /><path fill="rgb(254,254,254)" stroke="rgb(254,254,254)" stroke-width="1" opacity="1" d="M 272.5 133 L 270.5 136 L 272.5 133 Z " /><path fill="rgb(254,254,254)" stroke="rgb(254,254,254)" stroke-width="1" opacity="1" d="M 649.5 138 L 652 139.5 L 650 139.5 L 651 141.5 L 650 148 Q 647 149.3 648 145.5 L 647 140.5 L 649.5 138 Z " /><path fill="rgb(254,254,254)" stroke="rgb(254,254,254)" stroke-width="1" opacity="1" d="M 612.5 146 L 613 148.5 L 611 147.5 L 612.5 146 Z " /><path fill="rgb(254,254,254)" stroke="rgb(254,254,254)" stroke-width="1" opacity="1" d="M 608 150 Q 611.8 148.5 611 151.5 L 611.5 153 L 608 152 L 608 150 Z " /><path fill="rgb(254,254,254)" stroke="rgb(254,254,254)" stroke-width="1" opacity="1" d="M 648.5 158 L 647.5 160 L 648.5 158 Z " /><path fill="rgb(254,254,254)" stroke="rgb(254,254,254)" stroke-width="1" opacity="1" d="M 204.5 236 L 207 250 L 175.5 256 L 164.5 257 L 158.5 259 L 147.5 260 L 141.5 262 L 130.5 263 L 124.5 265 L 113.5 266 L 103 269 L 112 317.5 L 112 327.5 L 111 330.5 L 112 330.5 L 112.5 329 L 113 330.5 L 110 335.5 L 112 336.5 L 110 337 L 108.5 340 L 104 339 Q 104.8 335.2 101.5 334 L 100 334.5 L 101 333.5 L 94.5 327 L 93 327.5 Q 95.3 326.3 92.5 325 L 89.5 323 L 88 323.5 L 88.5 322 L 82.5 318 Q 81 320.5 79.5 317 Q 75.8 316.3 75 318.5 L 74 322.5 L 75.5 327 L 77 326.5 Q 74.5 328 78 329.5 L 80.5 333 L 82 332.5 L 86.5 338 L 89 338.5 Q 86.8 339.8 89.5 341 L 91 340.5 L 90 341.5 L 94.5 346 L 96 345.5 L 95 347.5 L 99 349.5 L 98 353 L 90 352 L 89.5 354 L 84.5 352 L 84.5 354 L 83.5 353 L 73.5 353 L 73.5 355 L 70.5 354 L 68 356.5 L 68 358.5 Q 67.5 362.5 70.5 363 L 72.5 362 Q 74.5 366 82.5 364 L 84.5 364 L 89.5 365 L 89.5 363 Q 92.4 366.6 100.5 365 L 102.5 365 L 106.5 364 L 109 364.5 L 108.5 366 L 117.5 371 L 121 371 L 124 387 L 63 397 L 56 352.5 L 53 340.5 L 53 335.5 L 51 329.5 L 50 318.5 L 48 312.5 L 46 295.5 L 44 289.5 L 43 278.5 L 40 265 L 102.5 254 L 107.5 254 L 113.5 252 L 124.5 251 L 130.5 249 L 141.5 248 L 147.5 246 L 158.5 245 L 164.5 243 L 175.5 242 L 181.5 240 L 192.5 239 L 204.5 236 Z " /><path fill="rgb(254,254,254)" stroke="rgb(254,254,254)" stroke-width="1" opacity="1" d="M 167.5 258 L 165.5 261 L 167.5 258 Z " /><path fill="rgb(254,254,254)" stroke="rgb(254,254,254)" stroke-width="1" opacity="1" d="M 147.5 287 L 148.5 289 L 147.5 287 Z " /><path fill="rgb(254,254,254)" stroke="rgb(254,254,254)" stroke-width="1" opacity="1" d="M 196.5 293 L 197.5 295 L 196.5 293 Z " /><path fill="rgb(254,254,254)" stroke="rgb(254,254,254)" stroke-width="1" opacity="1" d="M 171.5 297 L 174 297.5 L 171.5 298 L 171.5 297 Z " /><path fill="rgb(254,254,254)" stroke="rgb(254,254,254)" stroke-width="1" opacity="1" d="M 142.5 299 L 143.5 301 L 142.5 299 Z " /><path fill="rgb(254,254,254)" stroke="rgb(254,254,254)" stroke-width="1" opacity="1" d="M 171.5 310 L 172.5 312 L 171.5 310 Z " /><path fill="rgb(254,254,254)" stroke="rgb(254,254,254)" stroke-width="1" opacity="1" d="M 112 313 L 114 313.5 L 112 314.5 L 112 313 Z " /><path fill="rgb(254,254,254)" stroke="rgb(254,254,254)" stroke-width="1" opacity="1" d="M 160.5 316 L 159.5 318 L 160.5 316 Z " /><path fill="rgb(254,254,254)" stroke="rgb(254,254,254)" stroke-width="1" opacity="1" d="M 155.5 322 L 154.5 324 L 155.5 322 Z " /><path fill="rgb(254,254,254)" stroke="rgb(254,254,254)" stroke-width="1" opacity="1" d="M 141.5 341 L 144.5 343 L 144 344.5 L 145 346.5 L 141.5 348 Q 139 347 140 342.5 L 141.5 341 Z " /><path fill="rgb(254,254,254)" stroke="rgb(254,254,254)" stroke-width="1" opacity="1" d="M 123.5 343 L 125 347.5 L 123.5 349 L 121 348.5 Q 123.8 347.3 123.5 343 Z " /><path fill="rgb(254,254,254)" stroke="rgb(254,254,254)" stroke-width="1" opacity="1" d="M 224.5 350 L 225 355 Q 221.7 353.7 223 358.5 L 224.5 361 L 227 360 Q 228 363.8 225.5 365 L 221 362.5 L 220 352.5 L 224.5 350 Z " /><path fill="rgb(254,254,254)" stroke="rgb(254,254,254)" stroke-width="1" opacity="1" d="M 75.5 354 L 78 354.5 L 75.5 355 L 75.5 354 Z " /><path fill="rgb(254,254,254)" stroke="rgb(254,254,254)" stroke-width="1" opacity="1" d="M 152.5 357 Q 155.1 356.3 154 359 L 151 358.5 L 152.5 357 Z " /><path fill="rgb(254,254,254)" stroke="rgb(254,254,254)" stroke-width="1" opacity="1" d="M 589.5 399 L 588.5 401 L 589.5 399 Z " /><path fill="rgb(254,254,254)" stroke="rgb(254,254,254)" stroke-width="1" opacity="1" d="M 584.5 405 L 583.5 407 L 584.5 405 Z " /><path fill="rgb(254,254,254)" stroke="rgb(254,254,254)" stroke-width="1" opacity="1" d="M 271.5 406 L 272.5 408 L 271.5 406 Z " /><path fill="rgb(254,254,254)" stroke="rgb(254,254,254)" stroke-width="1" opacity="1" d="M 290.5 425 L 291.5 427 L 290.5 425 Z " /><path fill="rgb(254,254,254)" stroke="rgb(254,254,254)" stroke-width="1" opacity="1" d="M 563.5 426 L 562.5 428 L 563.5 426 Z " /><path fill="rgb(157,164,163)" stroke="rgb(157,164,163)" stroke-width="1" opacity="1" d="M 608.5 23 Q 613.5 22.5 614 26.5 L 610.5 24 Q 607.5 24.5 608.5 23 Z " /><path fill="rgb(157,164,163)" stroke="rgb(157,164,163)" stroke-width="1" opacity="1" d="M 606.5 25 L 606 26.5 L 605.5 28 L 605 26.5 L 606.5 25 Z " /><path fill="rgb(157,164,163)" stroke="rgb(157,164,163)" stroke-width="1" opacity="1" d="M 378.5 26 L 381 26.5 L 378.5 27 L 378.5 26 Z " /><path fill="rgb(157,164,163)" stroke="rgb(157,164,163)" stroke-width="1" opacity="1" d="M 342.5 30 L 340.5 33 L 342.5 30 Z " /><path fill="rgb(157,164,163)" stroke="rgb(157,164,163)" stroke-width="1" opacity="1" d="M 395.5 32 L 396 34.5 L 395 34.5 L 395.5 32 Z " /><path fill="rgb(157,164,163)" stroke="rgb(157,164,163)" stroke-width="1" opacity="1" d="M 604.5 32 L 605 37.5 L 604 37.5 L 604.5 32 Z " /><path fill="rgb(157,164,163)" stroke="rgb(157,164,163)" stroke-width="1" opacity="1" d="M 363.5 34 L 364 47.5 L 363 47.5 L 363.5 34 Z " /><path fill="rgb(157,164,163)" stroke="rgb(157,164,163)" stroke-width="1" opacity="1" d="M 376.5 34 L 379 34.5 L 376.5 35 L 376.5 34 Z " /><path fill="rgb(157,164,163)" stroke="rgb(157,164,163)" stroke-width="1" opacity="1" d="M 424.5 35 L 427.5 39 L 424.5 35 Z " /><path fill="rgb(157,164,163)" stroke="rgb(157,164,163)" stroke-width="1" opacity="1" d="M 394.5 36 L 393.5 38 L 394.5 36 Z " /><path fill="rgb(157,164,163)" stroke="rgb(157,164,163)" stroke-width="1" opacity="1" d="M 616.5 36 L 617 49.5 L 616 49.5 L 616.5 36 Z " /><path fill="rgb(157,164,163)" stroke="rgb(157,164,163)" stroke-width="1" opacity="1" d="M 457.5 37 L 460.5 41 L 457.5 37 Z " /><path fill="rgb(157,164,163)" stroke="rgb(157,164,163)" stroke-width="1" opacity="1" d="M 482.5 38 L 483.5 40 Q 480.7 40.7 482.5 38 Z " /><path fill="rgb(157,164,163)" stroke="rgb(157,164,163)" stroke-width="1" opacity="1" d="M 418.5 40 L 419.5 42 L 418.5 40 Z " /><path fill="rgb(157,164,163)" stroke="rgb(157,164,163)" stroke-width="1" opacity="1" d="M 437.5 43 L 438.5 45 L 437.5 43 Z " /><path fill="rgb(157,164,163)" stroke="rgb(157,164,163)" stroke-width="1" opacity="1" d="M 452.5 43 L 454.5 46 L 452.5 43 Z " /><path fill="rgb(157,164,163)" stroke="rgb(157,164,163)" stroke-width="1" opacity="1" d="M 503.5 43 L 502.5 45 L 503.5 43 Z " /><path fill="rgb(157,164,163)" stroke="rgb(157,164,163)" stroke-width="1" opacity="1" d="M 604.5 48 L 605 55.5 L 604 55.5 L 604.5 48 Z " /><path fill="rgb(157,164,163)" stroke="rgb(157,164,163)" stroke-width="1" opacity="1" d="M 412.5 49 L 415 49.5 L 412.5 50 L 412.5 49 Z " /><path fill="rgb(157,164,163)" stroke="rgb(157,164,163)" stroke-width="1" opacity="1" d="M 472.5 49 L 473 51.5 L 472 51.5 L 472.5 49 Z " /><path fill="rgb(157,164,163)" stroke="rgb(157,164,163)" stroke-width="1" opacity="1" d="M 646.5 49 L 642.5 54 L 646.5 49 Z " /><path fill="rgb(157,164,163)" stroke="rgb(157,164,163)" stroke-width="1" opacity="1" d="M 492.5 50 L 493 53.5 L 492 53.5 L 492.5 50 Z " /><path fill="rgb(157,164,163)" stroke="rgb(157,164,163)" stroke-width="1" opacity="1" d="M 464.5 52 L 465 61.5 L 464 61.5 L 464.5 52 Z " /><path fill="rgb(157,164,163)" stroke="rgb(157,164,163)" stroke-width="1" opacity="1" d="M 500.5 52 L 501 56.5 L 500 56.5 L 500.5 52 Z " /><path fill="rgb(157,164,163)" stroke="rgb(157,164,163)" stroke-width="1" opacity="1" d="M 480.5 56 L 481 67.5 L 480 67.5 L 480.5 56 Z " /><path fill="rgb(157,164,163)" stroke="rgb(157,164,163)" stroke-width="1" opacity="1" d="M 617.5 56 L 618 61.5 L 617 61.5 L 617.5 56 Z " /><path fill="rgb(157,164,163)" stroke="rgb(157,164,163)" stroke-width="1" opacity="1" d="M 651.5 56 L 649.5 59 L 651.5 56 Z " /><path fill="rgb(157,164,163)" stroke="rgb(157,164,163)" stroke-width="1" opacity="1" d="M 569.5 57 L 570 61.5 L 569 61.5 L 569.5 57 Z " /><path fill="rgb(157,164,163)" stroke="rgb(157,164,163)" stroke-width="1" opacity="1" d="M 443.5 58 L 442.5 60 L 443.5 58 Z " /><path fill="rgb(157,164,163)" stroke="rgb(157,164,163)" stroke-width="1" opacity="1" d="M 578.5 59 L 580.5 62 L 578.5 59 Z " /><path fill="rgb(157,164,163)" stroke="rgb(157,164,163)" stroke-width="1" opacity="1" d="M 363.5 60 L 364 67.5 L 363 67.5 L 363.5 60 Z " /><path fill="rgb(157,164,163)" stroke="rgb(157,164,163)" stroke-width="1" opacity="1" d="M 605.5 60 L 606 64.5 L 605 64.5 L 605.5 60 Z " /><path fill="rgb(157,164,163)" stroke="rgb(157,164,163)" stroke-width="1" opacity="1" d="M 635.5 60 L 634.5 62 L 635.5 60 Z " /><path fill="rgb(157,164,163)" stroke="rgb(157,164,163)" stroke-width="1" opacity="1" d="M 647.5 61 L 646 63.5 L 642.5 68 L 645 64.5 L 647.5 61 Z " /><path fill="rgb(157,164,163)" stroke="rgb(157,164,163)" stroke-width="1" opacity="1" d="M 511.5 62 L 512 64.5 L 511 64.5 L 511.5 62 Z " /><path fill="rgb(157,164,163)" stroke="rgb(157,164,163)" stroke-width="1" opacity="1" d="M 582.5 62 L 584.5 65 L 582.5 62 Z " /><path fill="rgb(157,164,163)" stroke="rgb(157,164,163)" stroke-width="1" opacity="1" d="M 570.5 63 L 571.5 65 L 570.5 63 Z " /><path fill="rgb(157,164,163)" stroke="rgb(157,164,163)" stroke-width="1" opacity="1" d="M 586.5 65 L 589.5 69 L 586.5 65 Z " /><path fill="rgb(157,164,163)" stroke="rgb(157,164,163)" stroke-width="1" opacity="1" d="M 618.5 65 L 619 67.5 L 618 67.5 L 618.5 65 Z " /><path fill="rgb(157,164,163)" stroke="rgb(157,164,163)" stroke-width="1" opacity="1" d="M 631.5 65 L 630.5 67 L 631.5 65 Z " /><path fill="rgb(157,164,163)" stroke="rgb(157,164,163)" stroke-width="1" opacity="1" d="M 519.5 66 L 520 68.5 L 519 68.5 L 519.5 66 Z " /><path fill="rgb(157,164,163)" stroke="rgb(157,164,163)" stroke-width="1" opacity="1" d="M 572.5 66 L 577.5 72 L 572.5 66 Z " /><path fill="rgb(157,164,163)" stroke="rgb(157,164,163)" stroke-width="1" opacity="1" d="M 629.5 68 L 629 69.5 L 626.5 73 L 628 70.5 L 629.5 68 Z " /><path fill="rgb(157,164,163)" stroke="rgb(157,164,163)" stroke-width="1" opacity="1" d="M 500.5 69 L 501 71.5 L 500 71.5 L 500.5 69 Z " /><path fill="rgb(157,164,163)" stroke="rgb(157,164,163)" stroke-width="1" opacity="1" d="M 619.5 69 L 621 71.5 L 619 70.5 L 619.5 69 Z " /><path fill="rgb(157,164,163)" stroke="rgb(157,164,163)" stroke-width="1" opacity="1" d="M 641.5 69 L 639.5 72 L 641.5 69 Z " /><path fill="rgb(157,164,163)" stroke="rgb(157,164,163)" stroke-width="1" opacity="1" d="M 593.5 70 L 594.5 72 L 593.5 70 Z " /><path fill="rgb(157,164,163)" stroke="rgb(157,164,163)" stroke-width="1" opacity="1" d="M 579.5 72 L 580.5 74 L 579.5 72 Z " /><path fill="rgb(157,164,163)" stroke="rgb(157,164,163)" stroke-width="1" opacity="1" d="M 605.5 72 L 604.5 74 L 600 73.5 L 605.5 72 Z " /><path fill="rgb(157,164,163)" stroke="rgb(157,164,163)" stroke-width="1" opacity="1" d="M 621.5 73 L 625 73.5 L 621.5 74 L 621.5 73 Z " /><path fill="rgb(157,164,163)" stroke="rgb(157,164,163)" stroke-width="1" opacity="1" d="M 638.5 73 L 635.5 77 L 638.5 73 Z " /><path fill="rgb(157,164,163)" stroke="rgb(157,164,163)" stroke-width="1" opacity="1" d="M 583.5 75 L 585.5 78 L 583.5 75 Z " /><path fill="rgb(157,164,163)" stroke="rgb(157,164,163)" stroke-width="1" opacity="1" d="M 587.5 78 L 590.5 82 L 587.5 78 Z " /><path fill="rgb(157,164,163)" stroke="rgb(157,164,163)" stroke-width="1" opacity="1" d="M 634.5 78 L 632.5 81 L 634.5 78 Z " /><path fill="rgb(157,164,163)" stroke="rgb(157,164,163)" stroke-width="1" opacity="1" d="M 630.5 83 L 628 86.5 L 626.5 90 L 626 88.5 L 630.5 83 Z " /><path fill="rgb(157,164,163)" stroke="rgb(157,164,163)" stroke-width="1" opacity="1" d="M 594.5 84 L 600 88.5 L 598.5 88 L 594.5 84 Z " /><path fill="rgb(157,164,163)" stroke="rgb(157,164,163)" stroke-width="1" opacity="1" d="M 601.5 89 L 602.5 91 L 601.5 89 Z " /><path fill="rgb(157,164,163)" stroke="rgb(157,164,163)" stroke-width="1" opacity="1" d="M 604.5 91 L 605.5 93 L 604.5 91 Z " /><path fill="rgb(157,164,163)" stroke="rgb(157,164,163)" stroke-width="1" opacity="1" d="M 607.5 93 L 608.5 95 L 607.5 93 Z " /><path fill="rgb(157,164,163)" stroke="rgb(157,164,163)" stroke-width="1" opacity="1" d="M 624.5 95 L 625 100.5 L 624 100.5 L 624.5 95 Z " /><path fill="rgb(157,164,163)" stroke="rgb(157,164,163)" stroke-width="1" opacity="1" d="M 661.5 103 L 659.5 106 L 661.5 103 Z " /><path fill="rgb(157,164,163)" stroke="rgb(157,164,163)" stroke-width="1" opacity="1" d="M 613.5 104 L 615.5 107 L 613.5 104 Z " /><path fill="rgb(157,164,163)" stroke="rgb(157,164,163)" stroke-width="1" opacity="1" d="M 656.5 112 L 657 114.5 L 656 114.5 L 656.5 112 Z " /><path fill="rgb(157,164,163)" stroke="rgb(157,164,163)" stroke-width="1" opacity="1" d="M 665.5 114 L 666 119.5 L 665 119.5 L 665.5 114 Z " /><path fill="rgb(157,164,163)" stroke="rgb(157,164,163)" stroke-width="1" opacity="1" d="M 655.5 117 L 656 122.5 L 655 122.5 L 655.5 117 Z " /><path fill="rgb(157,164,163)" stroke="rgb(157,164,163)" stroke-width="1" opacity="1" d="M 713.5 120 L 714 122.5 L 713 122.5 L 713.5 120 Z " /><path fill="rgb(157,164,163)" stroke="rgb(157,164,163)" stroke-width="1" opacity="1" d="M 664.5 124 L 665 132.5 L 664 132.5 L 664.5 124 Z " /><path fill="rgb(157,164,163)" stroke="rgb(157,164,163)" stroke-width="1" opacity="1" d="M 654.5 126 L 655 129.5 L 654 129.5 L 654.5 126 Z " /><path fill="rgb(157,164,163)" stroke="rgb(157,164,163)" stroke-width="1" opacity="1" d="M 690.5 126 L 689.5 128 L 690.5 126 Z " /><path fill="rgb(157,164,163)" stroke="rgb(157,164,163)" stroke-width="1" opacity="1" d="M 711.5 126 L 706.5 132 L 711.5 126 Z " /><path fill="rgb(157,164,163)" stroke="rgb(157,164,163)" stroke-width="1" opacity="1" d="M 687.5 128 L 686.5 130 L 687.5 128 Z " /><path fill="rgb(157,164,163)" stroke="rgb(157,164,163)" stroke-width="1" opacity="1" d="M 683.5 131 L 682.5 133 L 683.5 131 Z " /><path fill="rgb(157,164,163)" stroke="rgb(157,164,163)" stroke-width="1" opacity="1" d="M 653.5 132 L 654 135.5 L 653 135.5 L 653.5 132 Z " /><path fill="rgb(157,164,163)" stroke="rgb(157,164,163)" stroke-width="1" opacity="1" d="M 704.5 132 L 703.5 134 L 704.5 132 Z " /><path fill="rgb(157,164,163)" stroke="rgb(157,164,163)" stroke-width="1" opacity="1" d="M 679.5 134 L 678.5 136 L 679.5 134 Z " /><path fill="rgb(157,164,163)" stroke="rgb(157,164,163)" stroke-width="1" opacity="1" d="M 699.5 135 L 698.5 137 L 699.5 135 Z " /><path fill="rgb(157,164,163)" stroke="rgb(157,164,163)" stroke-width="1" opacity="1" d="M 676.5 136 L 674.5 139 L 676.5 136 Z " /><path fill="rgb(157,164,163)" stroke="rgb(157,164,163)" stroke-width="1" opacity="1" d="M 696.5 137 L 695.5 139 L 696.5 137 Z " /><path fill="rgb(157,164,163)" stroke="rgb(157,164,163)" stroke-width="1" opacity="1" d="M 652.5 138 L 653 140.5 L 652 140.5 L 652.5 138 Z " /><path fill="rgb(157,164,163)" stroke="rgb(157,164,163)" stroke-width="1" opacity="1" d="M 666.5 139 L 667.5 141 L 666.5 139 Z " /><path fill="rgb(157,164,163)" stroke="rgb(157,164,163)" stroke-width="1" opacity="1" d="M 693.5 139 L 691.5 142 L 693.5 139 Z " /><path fill="rgb(157,164,163)" stroke="rgb(157,164,163)" stroke-width="1" opacity="1" d="M 689.5 142 L 688.5 144 L 689.5 142 Z " /><path fill="rgb(157,164,163)" stroke="rgb(157,164,163)" stroke-width="1" opacity="1" d="M 686.5 144 L 684.5 147 L 686.5 144 Z " /><path fill="rgb(157,164,163)" stroke="rgb(157,164,163)" stroke-width="1" opacity="1" d="M 682.5 147 L 677.5 153 L 682.5 147 Z " /><path fill="rgb(157,164,163)" stroke="rgb(157,164,163)" stroke-width="1" opacity="1" d="M 651.5 152 L 652 154.5 L 651 154.5 L 651.5 152 Z " /><path fill="rgb(157,164,163)" stroke="rgb(157,164,163)" stroke-width="1" opacity="1" d="M 676.5 154 L 677 156.5 L 676 156.5 L 676.5 154 Z " /><path fill="rgb(157,164,163)" stroke="rgb(157,164,163)" stroke-width="1" opacity="1" d="M 649.5 158 L 648.5 160 L 649.5 158 Z " /><path fill="rgb(157,164,163)" stroke="rgb(157,164,163)" stroke-width="1" opacity="1" d="M 680.5 159 L 689 159.5 L 680.5 160 L 680.5 159 Z " /><path fill="rgb(157,164,163)" stroke="rgb(157,164,163)" stroke-width="1" opacity="1" d="M 647.5 161 L 647 162.5 L 645.5 166 L 645 164.5 L 647.5 161 Z " /><path fill="rgb(157,164,163)" stroke="rgb(157,164,163)" stroke-width="1" opacity="1" d="M 698.5 162 L 701 162.5 L 698.5 163 L 698.5 162 Z " /><path fill="rgb(157,164,163)" stroke="rgb(157,164,163)" stroke-width="1" opacity="1" d="M 712.5 166 L 713.5 168 L 712.5 166 Z " /><path fill="rgb(157,164,163)" stroke="rgb(157,164,163)" stroke-width="1" opacity="1" d="M 664.5 167 L 670 167.5 L 664.5 168 L 664.5 167 Z " /><path fill="rgb(157,164,163)" stroke="rgb(157,164,163)" stroke-width="1" opacity="1" d="M 673.5 168 L 676 168.5 L 673.5 169 L 673.5 168 Z " /><path fill="rgb(157,164,163)" stroke="rgb(157,164,163)" stroke-width="1" opacity="1" d="M 678.5 169 L 684 169.5 L 678.5 170 L 678.5 169 Z " /><path fill="rgb(157,164,163)" stroke="rgb(157,164,163)" stroke-width="1" opacity="1" d="M 687.5 170 L 693 170.5 L 687.5 171 L 687.5 170 Z " /><path fill="rgb(157,164,163)" stroke="rgb(157,164,163)" stroke-width="1" opacity="1" d="M 713.5 170 L 712.5 172 L 713.5 170 Z " /><path fill="rgb(157,164,163)" stroke="rgb(157,164,163)" stroke-width="1" opacity="1" d="M 696.5 171 L 700 171.5 L 696.5 172 L 696.5 171 Z " /><path fill="rgb(157,164,163)" stroke="rgb(157,164,163)" stroke-width="1" opacity="1" d="M 649.5 172 L 652 172.5 L 649.5 173 L 649.5 172 Z " /><path fill="rgb(157,164,163)" stroke="rgb(157,164,163)" stroke-width="1" opacity="1" d="M 705.5 172 L 708 172.5 L 705.5 173 L 705.5 172 Z " /><path fill="rgb(157,164,163)" stroke="rgb(157,164,163)" stroke-width="1" opacity="1" d="M 277 246 L 284 250.5 L 287 254.5 L 287 258.5 L 285 263.5 L 280 294.5 L 278 299.5 L 276.5 316 L 258 274.5 L 277 246 Z " /><path fill="rgb(157,164,163)" stroke="rgb(157,164,163)" stroke-width="1" opacity="1" d="M 578.5 246 L 581 247.5 L 601 288.5 L 582.5 341 L 581 308.5 L 574 269.5 L 572 264.5 L 571 254.5 L 578.5 246 Z " /><path fill="rgb(157,164,163)" stroke="rgb(157,164,163)" stroke-width="1" opacity="1" d="M 166.5 260 L 165.5 262 L 166.5 260 Z " /><path fill="rgb(157,164,163)" stroke="rgb(157,164,163)" stroke-width="1" opacity="1" d="M 172.5 261 L 173 267.5 L 172 267.5 L 172.5 261 Z " /><path fill="rgb(157,164,163)" stroke="rgb(157,164,163)" stroke-width="1" opacity="1" d="M 134.5 272 L 139 275.5 L 135.5 273 L 134.5 272 Z " /><path fill="rgb(157,164,163)" stroke="rgb(157,164,163)" stroke-width="1" opacity="1" d="M 171.5 273 L 172 275.5 L 171 275.5 L 171.5 273 Z " /><path fill="rgb(157,164,163)" stroke="rgb(157,164,163)" stroke-width="1" opacity="1" d="M 139.5 277 L 140.5 279 L 139.5 277 Z " /><path fill="rgb(157,164,163)" stroke="rgb(157,164,163)" stroke-width="1" opacity="1" d="M 133.5 280 L 134.5 282 L 133.5 280 Z " /><path fill="rgb(157,164,163)" stroke="rgb(157,164,163)" stroke-width="1" opacity="1" d="M 141.5 280 L 142.5 282 L 141.5 280 Z " /><path fill="rgb(157,164,163)" stroke="rgb(157,164,163)" stroke-width="1" opacity="1" d="M 169.5 282 L 170 284.5 L 169 284.5 L 169.5 282 Z " /><path fill="rgb(157,164,163)" stroke="rgb(157,164,163)" stroke-width="1" opacity="1" d="M 135.5 283 L 137 285.5 L 135 284.5 L 135.5 283 Z " /><path fill="rgb(157,164,163)" stroke="rgb(157,164,163)" stroke-width="1" opacity="1" d="M 143.5 283 L 145.5 286 L 143.5 283 Z " /><path fill="rgb(157,164,163)" stroke="rgb(157,164,163)" stroke-width="1" opacity="1" d="M 147.5 289 L 149 291.5 L 148 291.5 L 147.5 289 Z " /><path fill="rgb(157,164,163)" stroke="rgb(157,164,163)" stroke-width="1" opacity="1" d="M 166.5 293 L 167 295.5 L 166 295.5 L 166.5 293 Z " /><path fill="rgb(157,164,163)" stroke="rgb(157,164,163)" stroke-width="1" opacity="1" d="M 155.5 294 L 154.5 296 L 155.5 294 Z " /><path fill="rgb(157,164,163)" stroke="rgb(157,164,163)" stroke-width="1" opacity="1" d="M 180.5 295 L 179.5 297 L 178 296.5 L 180.5 295 Z " /><path fill="rgb(157,164,163)" stroke="rgb(157,164,163)" stroke-width="1" opacity="1" d="M 194.5 295 L 191.5 299 L 194.5 295 Z " /><path fill="rgb(157,164,163)" stroke="rgb(157,164,163)" stroke-width="1" opacity="1" d="M 142.5 297 L 143.5 299 L 142.5 297 Z " /><path fill="rgb(157,164,163)" stroke="rgb(157,164,163)" stroke-width="1" opacity="1" d="M 166.5 297 L 169 298.5 L 167.5 299 L 166.5 297 Z " /><path fill="rgb(157,164,163)" stroke="rgb(157,164,163)" stroke-width="1" opacity="1" d="M 187.5 300 L 186.5 302 L 184.5 303 L 185.5 301 L 187.5 300 Z " /><path fill="rgb(157,164,163)" stroke="rgb(157,164,163)" stroke-width="1" opacity="1" d="M 181.5 303 L 180.5 305 L 178.5 306 L 179.5 304 L 181.5 303 Z " /><path fill="rgb(157,164,163)" stroke="rgb(157,164,163)" stroke-width="1" opacity="1" d="M 176.5 306 L 175.5 308 L 173.5 309 L 174.5 307 L 176.5 306 Z " /><path fill="rgb(157,164,163)" stroke="rgb(157,164,163)" stroke-width="1" opacity="1" d="M 148.5 309 L 149 314.5 L 148 314.5 L 148.5 309 Z " /><path fill="rgb(157,164,163)" stroke="rgb(157,164,163)" stroke-width="1" opacity="1" d="M 116.5 313 L 118 313.5 L 115.5 315 L 116.5 313 Z " /><path fill="rgb(157,164,163)" stroke="rgb(157,164,163)" stroke-width="1" opacity="1" d="M 162.5 313 L 161.5 315 L 162.5 313 Z " /><path fill="rgb(157,164,163)" stroke="rgb(157,164,163)" stroke-width="1" opacity="1" d="M 119.5 315 L 121 317.5 L 120 317.5 L 119.5 315 Z " /><path fill="rgb(157,164,163)" stroke="rgb(157,164,163)" stroke-width="1" opacity="1" d="M 114.5 316 L 115 318.5 L 114 318.5 L 114.5 316 Z " /><path fill="rgb(157,164,163)" stroke="rgb(157,164,163)" stroke-width="1" opacity="1" d="M 77.5 319 L 76.5 321 L 77.5 319 Z " /><path fill="rgb(157,164,163)" stroke="rgb(157,164,163)" stroke-width="1" opacity="1" d="M 81.5 319 L 82.5 321 L 81.5 319 Z " /><path fill="rgb(157,164,163)" stroke="rgb(157,164,163)" stroke-width="1" opacity="1" d="M 157.5 319 L 155.5 322 L 157.5 319 Z " /><path fill="rgb(157,164,163)" stroke="rgb(157,164,163)" stroke-width="1" opacity="1" d="M 84.5 321 L 85.5 323 L 84.5 321 Z " /><path fill="rgb(157,164,163)" stroke="rgb(157,164,163)" stroke-width="1" opacity="1" d="M 121.5 321 L 122 328.5 L 121 328.5 L 121.5 321 Z " /><path fill="rgb(157,164,163)" stroke="rgb(157,164,163)" stroke-width="1" opacity="1" d="M 149.5 321 L 150.5 323 L 149.5 321 Z " /><path fill="rgb(157,164,163)" stroke="rgb(157,164,163)" stroke-width="1" opacity="1" d="M 88.5 324 L 89.5 326 L 88.5 324 Z " /><path fill="rgb(157,164,163)" stroke="rgb(157,164,163)" stroke-width="1" opacity="1" d="M 77.5 326 L 78.5 328 L 77.5 326 Z " /><path fill="rgb(157,164,163)" stroke="rgb(157,164,163)" stroke-width="1" opacity="1" d="M 113.5 326 L 114 331.5 L 113 331.5 L 113.5 326 Z " /><path fill="rgb(157,164,163)" stroke="rgb(157,164,163)" stroke-width="1" opacity="1" d="M 93.5 328 L 101.5 337 L 93.5 328 Z " /><path fill="rgb(157,164,163)" stroke="rgb(157,164,163)" stroke-width="1" opacity="1" d="M 84.5 333 L 97.5 347 L 84.5 333 Z " /><path fill="rgb(157,164,163)" stroke="rgb(157,164,163)" stroke-width="1" opacity="1" d="M 111.5 338 L 112 339.5 L 110 340.5 L 111.5 338 Z " /><path fill="rgb(157,164,163)" stroke="rgb(157,164,163)" stroke-width="1" opacity="1" d="M 106.5 341 L 109 342.5 L 107.5 343 L 106.5 341 Z " /><path fill="rgb(157,164,163)" stroke="rgb(157,164,163)" stroke-width="1" opacity="1" d="M 120.5 347 L 121 350.5 L 120 350.5 L 120.5 347 Z " /><path fill="rgb(157,164,163)" stroke="rgb(157,164,163)" stroke-width="1" opacity="1" d="M 98.5 348 L 99.5 350 L 98.5 348 Z " /><path fill="rgb(157,164,163)" stroke="rgb(157,164,163)" stroke-width="1" opacity="1" d="M 85.5 354 L 94 354.5 L 85.5 355 L 85.5 354 Z " /><path fill="rgb(157,164,163)" stroke="rgb(157,164,163)" stroke-width="1" opacity="1" d="M 73.5 355 L 76 355.5 L 73.5 356 L 73.5 355 Z " /><path fill="rgb(157,164,163)" stroke="rgb(157,164,163)" stroke-width="1" opacity="1" d="M 70.5 356 L 70 357.5 L 71 360.5 L 69 359.5 L 70.5 356 Z " /><path fill="rgb(157,164,163)" stroke="rgb(157,164,163)" stroke-width="1" opacity="1" d="M 121.5 359 L 123 362.5 L 122 362.5 L 121.5 359 Z " /><path fill="rgb(157,164,163)" stroke="rgb(157,164,163)" stroke-width="1" opacity="1" d="M 84.5 362 L 91 362.5 L 84.5 363 L 84.5 362 Z " /><path fill="rgb(157,164,163)" stroke="rgb(157,164,163)" stroke-width="1" opacity="1" d="M 92.5 362 L 95 362.5 L 92.5 363 L 92.5 362 Z " /><path fill="rgb(157,164,163)" stroke="rgb(157,164,163)" stroke-width="1" opacity="1" d="M 109.5 364 L 112 365.5 L 110.5 365 L 109.5 364 Z " /><path fill="rgb(157,164,163)" stroke="rgb(157,164,163)" stroke-width="1" opacity="1" d="M 122.5 367 L 121.5 369 L 122.5 367 Z " /><path fill="rgb(255,255,255)" stroke="rgb(255,255,255)" stroke-width="1" opacity="1" d="M 0 0 L 565.5 0 L 566 1.5 L 565 5 L 688 48 Q 687 51 690 50 L 690 54.5 L 670 108.5 L 665.5 126 L 665 124.5 Q 668.3 116.8 667.5 105 Q 668.8 107.3 670 104.5 L 667.5 103 Q 666 105.5 664.5 102 Q 658.8 101.3 658 105.5 L 654 116.5 L 655 118.5 L 652 134.5 L 652 136.5 L 651 140.5 L 651 142.5 L 651 153.5 L 645 162.5 L 644 169.5 L 645 172 L 650 173.5 L 646 175.5 L 640 194 L 712.5 219 L 716 212.5 L 770 59 L 606 0.5 L 855 0 L 855 521 L 0 521 L 0 0 Z M 608 21 Q 608 25 605 24 L 604 33 L 604 35 L 603 37 L 603 47 L 604 48 L 603 50 L 604 53 L 603 55 L 604 59 L 604 61 L 605 62 L 605 72 L 603 73 L 601 73 L 594 69 Q 590 70 591 67 L 587 65 L 587 63 Q 582 64 583 61 L 575 56 L 571 56 L 568 61 Q 571 68 577 72 Q 579 71 578 74 L 581 74 L 581 76 L 585 78 Q 587 77 586 80 L 590 82 Q 592 81 591 84 L 596 87 Q 598 86 597 89 L 607 94 L 614 107 L 618 109 L 623 107 L 625 100 L 625 98 L 626 92 L 629 88 Q 628 84 631 85 L 636 79 Q 635 76 638 77 L 638 75 L 640 75 L 640 73 L 648 63 Q 647 60 650 61 L 652 57 L 655 54 L 654 53 L 655 51 L 654 47 L 649 47 L 642 53 L 640 56 L 635 59 L 634 62 Q 631 61 632 64 L 630 64 L 628 70 L 625 73 L 621 72 L 619 66 L 620 63 L 619 61 L 619 59 Q 617 57 618 52 L 618 50 L 617 48 L 617 46 L 618 44 L 617 42 L 617 40 L 618 38 L 617 34 L 617 32 L 611 22 L 609 23 L 608 21 Z M 354 26 L 344 29 Q 337 32 339 43 Q 340 45 346 44 Q 349 43 348 38 L 350 36 L 361 34 L 363 35 L 363 74 L 353 77 L 333 86 Q 311 98 293 113 Q 262 140 242 178 L 228 214 L 224 231 L 223 242 L 222 243 L 222 251 L 221 252 L 221 290 L 222 291 L 223 306 L 228 328 Q 242 374 271 407 Q 294 433 326 451 Q 345 462 368 469 L 388 474 L 399 475 L 400 476 L 408 476 L 409 477 L 448 477 L 449 476 L 457 476 L 464 474 L 469 474 L 492 468 Q 533 454 563 428 Q 592 403 611 368 Q 621 349 627 328 L 634 291 L 634 251 L 627 214 Q 612 166 583 134 Q 551 96 501 77 L 501 50 L 503 45 L 508 42 L 511 46 L 512 51 L 511 69 L 509 76 L 510 78 L 510 80 L 516 80 L 519 75 L 520 60 L 521 59 L 520 45 L 518 40 L 513 35 Q 501 33 497 39 Q 493 36 485 38 L 483 39 L 483 32 L 475 32 L 472 47 L 472 68 L 464 67 L 465 64 Q 467 49 462 42 Q 460 36 454 35 Q 440 33 436 40 Q 435 44 439 45 Q 445 46 448 42 L 452 43 Q 455 45 455 50 L 456 51 L 454 50 Q 441 48 436 53 Q 432 57 432 64 Q 426 66 425 62 L 419 62 L 417 64 Q 409 63 406 65 Q 402 63 403 57 L 422 56 L 428 54 L 430 52 L 429 40 L 420 32 Q 409 30 404 34 L 396 43 L 393 53 Q 392 61 395 66 L 372 71 L 373 66 L 373 46 L 372 45 L 373 34 L 374 35 L 386 36 L 389 38 L 394 38 Q 397 37 396 32 L 392 28 L 383 26 L 354 26 Z M 602 46 Q 600 49 603 48 L 602 46 Z M 568 55 L 568 57 L 570 56 L 568 55 Z M 566 61 L 566 64 L 568 63 Q 569 60 566 61 Z M 651 61 L 649 63 L 650 65 L 651 63 L 651 61 Z M 632 85 L 628 91 L 630 91 L 632 87 L 632 85 Z M 613 125 L 613 127 L 615 126 L 613 125 Z M 628 132 L 625 134 L 623 134 L 623 138 L 621 139 L 625 141 Q 627 142 626 139 L 628 139 L 629 137 L 628 132 Z M 650 138 L 647 141 L 648 148 Q 652 149 650 143 L 650 141 L 651 139 L 650 138 Z M 613 146 L 611 148 L 613 149 L 613 146 Z M 608 150 L 608 152 L 612 153 L 611 152 Q 612 149 608 150 Z M 205 236 L 193 239 L 182 240 L 176 242 L 165 243 L 159 245 L 148 246 L 142 248 L 131 249 L 125 251 L 114 252 L 108 254 L 103 254 L 40 265 L 43 279 L 44 290 L 46 296 L 48 313 L 50 319 L 51 330 L 53 336 L 53 341 L 56 353 L 63 397 L 124 387 L 121 371 L 118 371 L 109 366 L 108 364 L 118 370 L 122 370 L 125 366 L 121 358 L 121 350 L 121 348 L 122 346 L 122 327 L 123 326 L 121 316 Q 120 311 115 312 L 113 318 L 113 329 L 112 330 L 113 332 L 112 336 L 110 336 L 111 333 L 111 331 L 112 328 L 112 318 L 103 269 L 114 266 L 125 265 L 131 263 L 142 262 L 148 260 L 159 259 L 165 257 L 176 256 L 207 250 L 205 236 Z M 172 257 L 168 258 L 162 268 L 162 270 L 161 274 L 161 276 L 158 286 L 158 288 L 155 294 L 152 295 Q 148 294 149 289 L 136 271 Q 132 271 131 274 Q 130 279 133 281 Q 132 284 135 283 L 136 286 Q 135 290 138 289 Q 140 299 147 307 L 148 312 L 147 314 L 148 322 Q 149 325 155 324 L 161 315 Q 172 312 181 305 Q 184 306 183 303 L 193 299 L 197 294 L 197 291 L 194 288 L 179 296 L 167 298 L 171 282 L 171 280 L 173 276 L 172 274 L 173 270 L 173 268 L 174 264 L 172 257 Z M 112 313 L 112 315 L 114 314 L 112 313 Z M 142 341 L 140 343 Q 139 347 142 348 L 145 347 L 144 345 L 145 343 L 142 341 Z M 124 343 L 122 348 Q 124 351 125 348 L 124 343 Z M 225 350 L 220 353 L 221 363 L 226 365 Q 228 364 227 360 L 225 361 L 223 359 Q 222 354 225 355 L 225 350 Z M 153 357 L 151 359 L 154 359 Q 155 356 153 357 Z " /><path fill="rgb(255,255,255)" stroke="rgb(255,255,255)" stroke-width="1" opacity="1" d="M 413.5 39 L 419 41.5 L 421 48 L 404 50 Q 404.4 42.9 410.5 40 L 413.5 39 Z " /><path fill="rgb(255,255,255)" stroke="rgb(255,255,255)" stroke-width="1" opacity="1" d="M 487.5 45 Q 491.5 44.5 492 47.5 L 491.5 74 L 481 71 L 481 53.5 L 485.5 46 L 487.5 45 Z " /><path fill="rgb(255,255,255)" stroke="rgb(255,255,255)" stroke-width="1" opacity="1" d="M 447.5 57 Q 453.1 56.9 455 60.5 L 455 65 L 447.5 65 L 442 64 Q 441 59.3 444.5 58 L 447.5 57 Z " /><path fill="rgb(255,255,255)" stroke="rgb(255,255,255)" stroke-width="1" opacity="1" d="M 706.5 116 L 704.5 119 L 695.5 123 L 696.5 121 L 706.5 116 Z " /><path fill="rgb(255,255,255)" stroke="rgb(255,255,255)" stroke-width="1" opacity="1" d="M 708.5 116 L 713 116.5 L 708.5 117 L 708.5 116 Z " /><path fill="rgb(255,255,255)" stroke="rgb(255,255,255)" stroke-width="1" opacity="1" d="M 714.5 120 L 716 122.5 L 711 131 L 695.5 141 L 696 139.5 Q 695.3 137.3 697.5 138 L 712 127.5 Q 711.3 124.9 714 126 L 714 123.5 L 714 121.5 L 714.5 120 Z " /><path fill="rgb(255,255,255)" stroke="rgb(255,255,255)" stroke-width="1" opacity="1" d="M 692.5 123 L 694 123.5 L 691.5 125 L 692.5 123 Z " /><path fill="rgb(255,255,255)" stroke="rgb(255,255,255)" stroke-width="1" opacity="1" d="M 689.5 125 L 687.5 128 L 687 126 L 689.5 125 Z " /><path fill="rgb(255,255,255)" stroke="rgb(255,255,255)" stroke-width="1" opacity="1" d="M 665.5 127 L 667 129.5 L 667 131.5 Q 665.8 136.2 668 137.5 L 666 136.5 Q 667.3 131.8 665 130.5 L 665 128.5 L 665.5 127 Z " /><path fill="rgb(255,255,255)" stroke="rgb(255,255,255)" stroke-width="1" opacity="1" d="M 685.5 128 L 684.5 130 L 671.5 140 L 671 138.5 L 685.5 128 Z " /><path fill="rgb(255,255,255)" stroke="rgb(255,255,255)" stroke-width="1" opacity="1" d="M 667.5 139 L 670 139.5 L 667.5 140 L 667.5 139 Z " /><path fill="rgb(255,255,255)" stroke="rgb(255,255,255)" stroke-width="1" opacity="1" d="M 693.5 141 L 692.5 143 L 689.5 145 L 689 143 L 693.5 141 Z " /><path fill="rgb(255,255,255)" stroke="rgb(255,255,255)" stroke-width="1" opacity="1" d="M 687.5 145 L 685.5 148 L 687.5 145 Z " /><path fill="rgb(255,255,255)" stroke="rgb(255,255,255)" stroke-width="1" opacity="1" d="M 683.5 148 L 680.5 152 L 683.5 148 Z " /><path fill="rgb(255,255,255)" stroke="rgb(255,255,255)" stroke-width="1" opacity="1" d="M 678 153 L 680 153.5 L 679 157 L 682.5 158 L 684.5 157 L 686.5 158 L 688.5 158 L 696 159.5 Q 694.8 162.3 693.5 160 L 687.5 158 L 685.5 159 L 683.5 159 L 677 157 L 678 153 Z " /><path fill="rgb(255,255,255)" stroke="rgb(255,255,255)" stroke-width="1" opacity="1" d="M 697.5 160 L 710.5 163 L 715 166.5 L 714.5 168 L 712.5 165 L 704.5 162 L 702.5 163 L 697.5 161 L 697.5 160 Z " /><path fill="rgb(255,255,255)" stroke="rgb(255,255,255)" stroke-width="1" opacity="1" d="M 665.5 168 L 667.5 168 L 671 169.5 L 669.5 170 L 667.5 170 L 665.5 169 L 661.5 170 L 661.5 169 L 665.5 168 Z " /><path fill="rgb(255,255,255)" stroke="rgb(255,255,255)" stroke-width="1" opacity="1" d="M 676.5 169 L 680.5 171 L 682 170.5 Q 682.8 172.8 680.5 172 L 675 170.5 L 676.5 169 Z " /><path fill="rgb(255,255,255)" stroke="rgb(255,255,255)" stroke-width="1" opacity="1" d="M 715.5 169 L 716 170.5 L 715 173 L 713 172.5 L 715.5 169 Z " /><path fill="rgb(255,255,255)" stroke="rgb(255,255,255)" stroke-width="1" opacity="1" d="M 658.5 170 L 660 170.5 L 657.5 172 L 658.5 170 Z " /><path fill="rgb(255,255,255)" stroke="rgb(255,255,255)" stroke-width="1" opacity="1" d="M 683.5 171 L 697.5 172 L 698.5 173 L 700 172.5 Q 700.8 174.8 698.5 174 L 688.5 172 L 686.5 172 Q 682.5 172.8 683.5 171 Z " /><path fill="rgb(255,255,255)" stroke="rgb(255,255,255)" stroke-width="1" opacity="1" d="M 654.5 172 L 656 172.5 L 651.5 174 L 651.5 173 L 654.5 172 Z " /><path fill="rgb(255,255,255)" stroke="rgb(255,255,255)" stroke-width="1" opacity="1" d="M 711.5 173 L 710.5 175 L 707 174.5 L 711.5 173 Z " /><path fill="rgb(255,255,255)" stroke="rgb(255,255,255)" stroke-width="1" opacity="1" d="M 76.5 317 L 80 317.5 L 75 320.5 L 76 326.5 L 81 332.5 L 78 330.5 Q 74 327.5 74 320.5 L 76.5 317 Z " /><path fill="rgb(255,255,255)" stroke="rgb(255,255,255)" stroke-width="1" opacity="1" d="M 82.5 318 Q 95 325.5 104 336.5 L 103.5 338 L 99.5 333 L 97 331.5 L 93.5 327 L 85.5 322 L 82.5 318 Z " /><path fill="rgb(255,255,255)" stroke="rgb(255,255,255)" stroke-width="1" opacity="1" d="M 82.5 333 L 86.5 338 L 82.5 333 Z " /><path fill="rgb(255,255,255)" stroke="rgb(255,255,255)" stroke-width="1" opacity="1" d="M 110.5 337 L 111 338.5 L 110 341 Q 106.2 342 105 339.5 L 106.5 339 L 108.5 340 L 110.5 337 Z " /><path fill="rgb(255,255,255)" stroke="rgb(255,255,255)" stroke-width="1" opacity="1" d="M 88.5 339 Q 90.8 338.3 90 340.5 L 95 344 L 97 348.5 L 95 347.5 L 88.5 339 Z " /><path fill="rgb(255,255,255)" stroke="rgb(255,255,255)" stroke-width="1" opacity="1" d="M 98.5 350 L 99 354 Q 92.8 355.3 90 352.5 L 92.5 352 L 98 353 L 98.5 350 Z " /><path fill="rgb(255,255,255)" stroke="rgb(255,255,255)" stroke-width="1" opacity="1" d="M 84.5 352 L 89 353.5 L 85.5 354 L 83.5 354 L 73 353.5 L 83.5 353 L 84.5 352 Z " /><path fill="rgb(255,255,255)" stroke="rgb(255,255,255)" stroke-width="1" opacity="1" d="M 70.5 354 L 72 354.5 L 68.5 357 L 70.5 354 Z " /><path fill="rgb(255,255,255)" stroke="rgb(255,255,255)" stroke-width="1" opacity="1" d="M 68.5 358 L 71 362.5 L 68 360.5 L 68.5 358 Z " /><path fill="rgb(255,255,255)" stroke="rgb(255,255,255)" stroke-width="1" opacity="1" d="M 73.5 362 L 74.5 363 L 83 363.5 L 74.5 364 L 73.5 362 Z " /><path fill="rgb(255,255,255)" stroke="rgb(255,255,255)" stroke-width="1" opacity="1" d="M 84.5 363 L 89.5 364 L 91.5 363 L 92.5 364 L 101 364.5 L 92.5 365 L 90.5 364 L 86.5 365 L 84.5 363 Z " /><path fill="rgb(255,255,255)" stroke="rgb(255,255,255)" stroke-width="1" opacity="1" d="M 102.5 364 L 106 364.5 L 102.5 365 L 102.5 364 Z " /><path fill="rgb(254,203,78)" stroke="rgb(254,203,78)" stroke-width="1" opacity="1" d="M 416.5 64 L 414.5 67 L 409.5 68 L 405 65.5 L 415.5 65 L 416.5 64 Z " /><path fill="rgb(254,203,78)" stroke="rgb(254,203,78)" stroke-width="1" opacity="1" d="M 426 64 L 433 64.5 L 432 66.5 L 433 71 L 423 70.5 Q 427 69.1 426 64 Z " /><path fill="rgb(254,203,78)" stroke="rgb(254,203,78)" stroke-width="1" opacity="1" d="M 442 65 Q 450.4 64 455 66 Q 455.8 69.8 452.5 71 L 447.5 72 L 442 68.5 L 442 65 Z " /><path fill="rgb(254,203,78)" stroke="rgb(254,203,78)" stroke-width="1" opacity="1" d="M 390.5 67 Q 396.6 65.8 396 68.5 Q 400.1 77.4 415.5 75 L 419.5 74 L 427.5 80 L 429.5 80 L 436.5 75 Q 440.2 80.8 451.5 79 Q 452.8 76.8 454 79.5 Q 453.1 82.9 458.5 81 L 462 76.5 L 464.5 67 L 472 69 L 472 76 Q 468.2 74.5 469 77.5 L 466.5 80 L 454 83.5 Q 504.7 94.3 533 127.5 Q 554.2 150.3 564 184.5 L 566 192.5 L 566 199.5 L 568 205.5 L 568 238.5 L 571.5 253 L 573 252.5 Q 570 253.5 571 258.5 L 581 308.5 L 582 341.5 L 579.5 348 L 574.5 348 L 571.5 346 L 544.5 338 L 498.5 406 L 465 350 L 462.5 350 L 439.5 372 L 396.5 350 L 393.5 350 L 360.5 394 L 357 391.5 L 328 331.5 L 324.5 327 L 322.5 327 L 293.5 347 L 289 348 L 277 319.5 L 277 308.5 L 287 254.5 L 284.5 251 L 287 252.5 L 290 236.5 L 290 205.5 L 291 204.5 L 291 196.5 L 298 171.5 Q 311.4 136.9 337.5 115 Q 353.5 101 374.5 92 L 391.5 86 L 403 83.5 L 395.5 82 L 388 76.5 L 388.5 75 L 372 79 L 372 72.5 L 373.5 71 L 390.5 67 Z M 354 175 L 343 179 L 336 189 Q 335 199 339 204 Q 343 210 352 211 Q 359 211 364 208 Q 369 205 371 198 Q 373 187 368 183 L 362 177 L 354 175 Z M 499 176 L 495 178 Q 489 182 487 189 Q 485 198 489 203 Q 493 209 503 211 Q 511 211 516 207 Q 520 203 522 197 Q 523 186 518 182 Q 513 174 499 176 Z M 427 187 L 415 190 L 407 195 L 399 204 L 395 213 Q 396 217 394 219 L 395 231 L 398 236 L 406 242 L 418 245 L 441 245 L 456 240 Q 462 236 464 227 Q 465 208 455 200 Q 456 197 453 198 L 453 196 L 444 190 L 438 188 L 427 187 Z " /><path fill="rgb(254,203,78)" stroke="rgb(254,203,78)" stroke-width="1" opacity="1" d="M 481.5 71 L 491.5 74 L 495.5 78 L 499.5 78 L 501.5 78 Q 552.9 97.6 585 136.5 Q 610.1 165.4 624 205.5 L 629 223.5 L 633 246.5 L 634 283.5 L 633 284.5 L 633 294.5 L 629 317.5 L 617 353.5 Q 597.1 397.6 562.5 427 L 548.5 438 L 550.5 435 L 556.5 431 L 576 411.5 Q 597.5 388.2 607 354 Q 609.7 355.1 609 352.5 L 608 350.5 L 609 350.5 L 609.5 352 L 617 334.5 L 624 307.5 L 625 295.5 L 626 294.5 L 626 285.5 L 627 284.5 L 627 257.5 L 626 256.5 L 626 246.5 L 625 245.5 L 624 233.5 L 620 216.5 L 608 184.5 Q 591.8 151.2 566.5 127 Q 549.6 110.4 528.5 98 L 511.5 89 L 481 77.5 L 480 75.5 L 481.5 71 Z " /><path fill="rgb(254,203,78)" stroke="rgb(254,203,78)" stroke-width="1" opacity="1" d="M 360.5 75 Q 363.8 73.9 363 76.5 L 360.5 83 L 341.5 90 L 321.5 101 L 304.5 113 L 287.5 129 L 286 129 L 262 158.5 Q 249 178 240 201.5 L 234 220.5 L 230 239.5 L 229 257.5 L 228 258.5 L 228 283.5 L 229 284.5 L 229 294.5 L 230 295.5 L 231 307.5 L 238 334.5 Q 245 355 255.5 372 L 256.5 370 L 257 371.5 L 256.5 373 L 258 373.5 L 257.5 375 Q 259.8 374.3 259 376.5 Q 272.7 404.8 294.5 425 Q 322.9 452.6 365 466.5 L 363.5 467 Q 305.4 447.1 270 404.5 Q 247.5 378.5 234 343.5 L 229 328.5 L 223 301.5 L 222 282.5 L 221 281.5 L 221 258.5 L 222 257.5 L 222 246.5 L 226 223.5 L 239 185.5 Q 258.9 142.9 292.5 114 Q 320.9 88.9 360.5 75 Z " /><path fill="rgb(254,203,78)" stroke="rgb(254,203,78)" stroke-width="1" opacity="1" d="M 278.5 245 L 281.5 249 L 278.5 245 Z " /><path fill="rgb(254,203,78)" stroke="rgb(254,203,78)" stroke-width="1" opacity="1" d="M 251.5 260 L 252.5 262 L 251.5 260 Z " /><path fill="rgb(254,203,78)" stroke="rgb(254,203,78)" stroke-width="1" opacity="1" d="M 608.5 268 L 607.5 270 L 608.5 268 Z " /><path fill="rgb(254,203,78)" stroke="rgb(254,203,78)" stroke-width="1" opacity="1" d="M 611.5 278 L 612 280.5 L 611 280.5 L 611.5 278 Z " /><path fill="rgb(254,203,78)" stroke="rgb(254,203,78)" stroke-width="1" opacity="1" d="M 245.5 282 L 246 284.5 L 245 284.5 L 245.5 282 Z " /><path fill="rgb(254,203,78)" stroke="rgb(254,203,78)" stroke-width="1" opacity="1" d="M 612.5 283 L 613 286.5 L 612 286.5 L 612.5 283 Z " /><path fill="rgb(254,203,78)" stroke="rgb(254,203,78)" stroke-width="1" opacity="1" d="M 244.5 289 L 245 292.5 L 244 292.5 L 244.5 289 Z " /><path fill="rgb(254,203,78)" stroke="rgb(254,203,78)" stroke-width="1" opacity="1" d="M 613.5 290 L 614 294.5 L 613 294.5 L 613.5 290 Z " /><path fill="rgb(254,203,78)" stroke="rgb(254,203,78)" stroke-width="1" opacity="1" d="M 243.5 299 L 244 301.5 L 243 301.5 L 243.5 299 Z " /><path fill="rgb(254,203,78)" stroke="rgb(254,203,78)" stroke-width="1" opacity="1" d="M 614.5 301 L 615 315.5 L 614 315.5 L 614.5 301 Z " /><path fill="rgb(254,203,78)" stroke="rgb(254,203,78)" stroke-width="1" opacity="1" d="M 243.5 314 L 244 317.5 L 243 317.5 L 243.5 314 Z " /><path fill="rgb(254,203,78)" stroke="rgb(254,203,78)" stroke-width="1" opacity="1" d="M 613.5 323 L 614 327.5 L 613 327.5 L 613.5 323 Z " /><path fill="rgb(254,203,78)" stroke="rgb(254,203,78)" stroke-width="1" opacity="1" d="M 244.5 324 L 245 328.5 L 244 328.5 L 244.5 324 Z " /><path fill="rgb(254,203,78)" stroke="rgb(254,203,78)" stroke-width="1" opacity="1" d="M 245.5 332 L 246 335.5 L 245 335.5 L 245.5 332 Z " /><path fill="rgb(254,203,78)" stroke="rgb(254,203,78)" stroke-width="1" opacity="1" d="M 612.5 332 L 613 334.5 L 612 334.5 L 612.5 332 Z " /><path fill="rgb(254,203,78)" stroke="rgb(254,203,78)" stroke-width="1" opacity="1" d="M 611.5 337 L 612 339.5 L 611 339.5 L 611.5 337 Z " /><path fill="rgb(254,203,78)" stroke="rgb(254,203,78)" stroke-width="1" opacity="1" d="M 246.5 338 L 247 340.5 L 246 340.5 L 246.5 338 Z " /><path fill="rgb(254,203,78)" stroke="rgb(254,203,78)" stroke-width="1" opacity="1" d="M 545.5 439 L 544.5 441 L 545.5 439 Z " /><path fill="rgb(254,203,78)" stroke="rgb(254,203,78)" stroke-width="1" opacity="1" d="M 542.5 441 L 541.5 443 L 542.5 441 Z " /><path fill="rgb(254,203,78)" stroke="rgb(254,203,78)" stroke-width="1" opacity="1" d="M 366.5 467 L 372 468.5 L 369.5 469 L 366.5 468 L 366.5 467 Z " /><path fill="rgb(254,203,78)" stroke="rgb(254,203,78)" stroke-width="1" opacity="1" d="M 376.5 470 L 379 470.5 L 376.5 471 L 376.5 470 Z " /><path fill="rgb(254,203,78)" stroke="rgb(254,203,78)" stroke-width="1" opacity="1" d="M 380.5 471 L 383 471.5 L 380.5 472 L 380.5 471 Z " /><path fill="rgb(254,203,78)" stroke="rgb(254,203,78)" stroke-width="1" opacity="1" d="M 385.5 472 L 388 472.5 L 385.5 473 L 385.5 472 Z " /><path fill="rgb(254,203,78)" stroke="rgb(254,203,78)" stroke-width="1" opacity="1" d="M 390.5 473 L 393 473.5 L 390.5 474 L 390.5 473 Z " /><path fill="rgb(254,203,78)" stroke="rgb(254,203,78)" stroke-width="1" opacity="1" d="M 396.5 474 L 401 474.5 L 396.5 475 L 396.5 474 Z " /><path fill="rgb(254,203,78)" stroke="rgb(254,203,78)" stroke-width="1" opacity="1" d="M 404.5 475 L 412 475.5 L 404.5 476 L 404.5 475 Z " /><path fill="rgb(254,203,78)" stroke="rgb(254,203,78)" stroke-width="1" opacity="1" d="M 447.5 475 L 450 475.5 L 447.5 476 L 447.5 475 Z " /><path fill="rgb(254,203,78)" stroke="rgb(254,203,78)" stroke-width="1" opacity="1" d="M 414.5 476 L 441 476.5 L 414.5 477 L 414.5 476 Z " /><path fill="rgb(225,221,205)" stroke="rgb(225,221,205)" stroke-width="1" opacity="1" d="M 607.5 23 L 605.5 26 L 607.5 23 Z " /><path fill="rgb(225,221,205)" stroke="rgb(225,221,205)" stroke-width="1" opacity="1" d="M 393.5 29 L 395.5 32 L 393.5 29 Z " /><path fill="rgb(225,221,205)" stroke="rgb(225,221,205)" stroke-width="1" opacity="1" d="M 357.5 34 L 360 34.5 L 357.5 35 L 357.5 34 Z " /><path fill="rgb(225,221,205)" stroke="rgb(225,221,205)" stroke-width="1" opacity="1" d="M 373.5 34 L 376 34.5 L 373.5 35 L 373.5 34 Z " /><path fill="rgb(225,221,205)" stroke="rgb(225,221,205)" stroke-width="1" opacity="1" d="M 402.5 35 L 401.5 37 L 402.5 35 Z " /><path fill="rgb(225,221,205)" stroke="rgb(225,221,205)" stroke-width="1" opacity="1" d="M 346.5 42 L 345.5 44 L 346.5 42 Z " /><path fill="rgb(225,221,205)" stroke="rgb(225,221,205)" stroke-width="1" opacity="1" d="M 372.5 45 L 373 65.5 L 372 65.5 L 372.5 45 Z " /><path fill="rgb(225,221,205)" stroke="rgb(225,221,205)" stroke-width="1" opacity="1" d="M 472.5 46 L 473 48.5 L 472 48.5 L 472.5 46 Z " /><path fill="rgb(225,221,205)" stroke="rgb(225,221,205)" stroke-width="1" opacity="1" d="M 484.5 46 L 483.5 48 L 484.5 46 Z " /><path fill="rgb(225,221,205)" stroke="rgb(225,221,205)" stroke-width="1" opacity="1" d="M 363.5 48 L 364 59.5 L 363 59.5 L 363.5 48 Z " /><path fill="rgb(225,221,205)" stroke="rgb(225,221,205)" stroke-width="1" opacity="1" d="M 520.5 51 L 521 58.5 L 520 58.5 L 520.5 51 Z " /><path fill="rgb(225,221,205)" stroke="rgb(225,221,205)" stroke-width="1" opacity="1" d="M 393.5 52 L 394 59.5 L 393 59.5 L 393.5 52 Z " /><path fill="rgb(225,221,205)" stroke="rgb(225,221,205)" stroke-width="1" opacity="1" d="M 617.5 53 L 618 55.5 L 617 55.5 L 617.5 53 Z " /><path fill="rgb(225,221,205)" stroke="rgb(225,221,205)" stroke-width="1" opacity="1" d="M 641.5 54 L 636.5 60 L 641.5 54 Z " /><path fill="rgb(225,221,205)" stroke="rgb(225,221,205)" stroke-width="1" opacity="1" d="M 570.5 56 L 573 56.5 L 570.5 57 L 570.5 56 Z " /><path fill="rgb(225,221,205)" stroke="rgb(225,221,205)" stroke-width="1" opacity="1" d="M 500.5 57 L 501 68.5 L 500 68.5 L 500.5 57 Z " /><path fill="rgb(225,221,205)" stroke="rgb(225,221,205)" stroke-width="1" opacity="1" d="M 511.5 59 L 512 61.5 L 511 61.5 L 511.5 59 Z " /><path fill="rgb(225,221,205)" stroke="rgb(225,221,205)" stroke-width="1" opacity="1" d="M 649.5 59 L 648.5 61 L 649.5 59 Z " /><path fill="rgb(225,221,205)" stroke="rgb(225,221,205)" stroke-width="1" opacity="1" d="M 441.5 62 L 442 64 L 444 64.5 L 442.5 65 L 441.5 62 Z " /><path fill="rgb(225,221,205)" stroke="rgb(225,221,205)" stroke-width="1" opacity="1" d="M 455.5 62 L 456 65.5 L 455 65.5 L 455.5 62 Z " /><path fill="rgb(225,221,205)" stroke="rgb(225,221,205)" stroke-width="1" opacity="1" d="M 412.5 64 L 416 64.5 L 412.5 65 L 412.5 64 Z " /><path fill="rgb(225,221,205)" stroke="rgb(225,221,205)" stroke-width="1" opacity="1" d="M 631.5 64 L 630.5 66 L 631.5 64 Z " /><path fill="rgb(225,221,205)" stroke="rgb(225,221,205)" stroke-width="1" opacity="1" d="M 589.5 67 L 590.5 69 L 589.5 67 Z " /><path fill="rgb(225,221,205)" stroke="rgb(225,221,205)" stroke-width="1" opacity="1" d="M 643.5 67 L 642.5 69 L 643.5 67 Z " /><path fill="rgb(225,221,205)" stroke="rgb(225,221,205)" stroke-width="1" opacity="1" d="M 480.5 68 L 481 70.5 L 480 70.5 L 480.5 68 Z " /><path fill="rgb(225,221,205)" stroke="rgb(225,221,205)" stroke-width="1" opacity="1" d="M 581.5 74 L 582.5 76 L 581.5 74 Z " /><path fill="rgb(225,221,205)" stroke="rgb(225,221,205)" stroke-width="1" opacity="1" d="M 637.5 75 L 635.5 78 L 637.5 75 Z " /><path fill="rgb(225,221,205)" stroke="rgb(225,221,205)" stroke-width="1" opacity="1" d="M 500.5 76 L 501.5 78 L 500.5 76 Z " /><path fill="rgb(225,221,205)" stroke="rgb(225,221,205)" stroke-width="1" opacity="1" d="M 516.5 78 L 515.5 80 L 516.5 78 Z " /><path fill="rgb(225,221,205)" stroke="rgb(225,221,205)" stroke-width="1" opacity="1" d="M 633.5 80 L 631.5 83 L 633.5 80 Z " /><path fill="rgb(225,221,205)" stroke="rgb(225,221,205)" stroke-width="1" opacity="1" d="M 591.5 82 L 592.5 84 L 591.5 82 Z " /><path fill="rgb(225,221,205)" stroke="rgb(225,221,205)" stroke-width="1" opacity="1" d="M 608.5 95 L 609.5 97 L 608.5 95 Z " /><path fill="rgb(225,221,205)" stroke="rgb(225,221,205)" stroke-width="1" opacity="1" d="M 664.5 102 L 665.5 104 L 664.5 102 Z " /><path fill="rgb(225,221,205)" stroke="rgb(225,221,205)" stroke-width="1" opacity="1" d="M 550.5 104 L 551.5 106 L 550.5 104 Z " /><path fill="rgb(225,221,205)" stroke="rgb(225,221,205)" stroke-width="1" opacity="1" d="M 666.5 111 L 667 113.5 L 666 113.5 L 666.5 111 Z " /><path fill="rgb(225,221,205)" stroke="rgb(225,221,205)" stroke-width="1" opacity="1" d="M 294.5 112 L 293.5 114 L 294.5 112 Z " /><path fill="rgb(225,221,205)" stroke="rgb(225,221,205)" stroke-width="1" opacity="1" d="M 560.5 112 L 561.5 114 L 560.5 112 Z " /><path fill="rgb(225,221,205)" stroke="rgb(225,221,205)" stroke-width="1" opacity="1" d="M 711.5 117 L 713.5 120 L 711.5 117 Z " /><path fill="rgb(225,221,205)" stroke="rgb(225,221,205)" stroke-width="1" opacity="1" d="M 286.5 119 L 276.5 130 L 286.5 119 Z " /><path fill="rgb(225,221,205)" stroke="rgb(225,221,205)" stroke-width="1" opacity="1" d="M 568.5 119 L 578.5 130 L 568.5 119 Z " /><path fill="rgb(225,221,205)" stroke="rgb(225,221,205)" stroke-width="1" opacity="1" d="M 654.5 123 L 655 125.5 L 654 125.5 L 654.5 123 Z " /><path fill="rgb(225,221,205)" stroke="rgb(225,221,205)" stroke-width="1" opacity="1" d="M 270.5 136 L 269.5 138 L 270.5 136 Z " /><path fill="rgb(225,221,205)" stroke="rgb(225,221,205)" stroke-width="1" opacity="1" d="M 673.5 138 L 672.5 140 L 673.5 138 Z " /><path fill="rgb(225,221,205)" stroke="rgb(225,221,205)" stroke-width="1" opacity="1" d="M 262.5 146 L 261.5 148 L 262.5 146 Z " /><path fill="rgb(225,221,205)" stroke="rgb(225,221,205)" stroke-width="1" opacity="1" d="M 651.5 148 L 652 151.5 L 651 151.5 L 651.5 148 Z " /><path fill="rgb(225,221,205)" stroke="rgb(225,221,205)" stroke-width="1" opacity="1" d="M 678.5 152 L 677.5 154 L 678.5 152 Z " /><path fill="rgb(225,221,205)" stroke="rgb(225,221,205)" stroke-width="1" opacity="1" d="M 644.5 166 L 645 168.5 L 644 168.5 L 644.5 166 Z " /><path fill="rgb(225,221,205)" stroke="rgb(225,221,205)" stroke-width="1" opacity="1" d="M 684.5 170 L 687 170.5 L 684.5 171 L 684.5 170 Z " /><path fill="rgb(225,221,205)" stroke="rgb(225,221,205)" stroke-width="1" opacity="1" d="M 693.5 171 L 696 171.5 L 693.5 172 L 693.5 171 Z " /><path fill="rgb(225,221,205)" stroke="rgb(225,221,205)" stroke-width="1" opacity="1" d="M 221.5 254 L 222 257.5 L 221 257.5 L 221.5 254 Z " /><path fill="rgb(225,221,205)" stroke="rgb(225,221,205)" stroke-width="1" opacity="1" d="M 633.5 254 L 634 256.5 L 633 256.5 L 633.5 254 Z " /><path fill="rgb(225,221,205)" stroke="rgb(225,221,205)" stroke-width="1" opacity="1" d="M 251.5 261 L 254 265.5 L 253 265.5 L 251.5 261 Z " /><path fill="rgb(225,221,205)" stroke="rgb(225,221,205)" stroke-width="1" opacity="1" d="M 250.5 263 L 251 265.5 L 250 265.5 L 250.5 263 Z " /><path fill="rgb(225,221,205)" stroke="rgb(225,221,205)" stroke-width="1" opacity="1" d="M 608.5 269 L 608 270.5 L 607.5 272 L 607 270.5 L 608.5 269 Z " /><path fill="rgb(225,221,205)" stroke="rgb(225,221,205)" stroke-width="1" opacity="1" d="M 248.5 271 L 249 273.5 L 248 273.5 L 248.5 271 Z " /><path fill="rgb(225,221,205)" stroke="rgb(225,221,205)" stroke-width="1" opacity="1" d="M 257.5 274 L 260 278.5 L 259 278.5 L 257.5 274 Z " /><path fill="rgb(225,221,205)" stroke="rgb(225,221,205)" stroke-width="1" opacity="1" d="M 610.5 276 L 611 278.5 L 610 278.5 L 610.5 276 Z " /><path fill="rgb(225,221,205)" stroke="rgb(225,221,205)" stroke-width="1" opacity="1" d="M 246.5 279 L 247 281.5 L 246 281.5 L 246.5 279 Z " /><path fill="rgb(225,221,205)" stroke="rgb(225,221,205)" stroke-width="1" opacity="1" d="M 260.5 280 L 262 283.5 L 261 283.5 L 260.5 280 Z " /><path fill="rgb(225,221,205)" stroke="rgb(225,221,205)" stroke-width="1" opacity="1" d="M 611.5 281 L 612 283.5 L 611 283.5 L 611.5 281 Z " /><path fill="rgb(225,221,205)" stroke="rgb(225,221,205)" stroke-width="1" opacity="1" d="M 221.5 282 L 222 285.5 L 221 285.5 L 221.5 282 Z " /><path fill="rgb(225,221,205)" stroke="rgb(225,221,205)" stroke-width="1" opacity="1" d="M 633.5 284 L 634 286.5 L 633 286.5 L 633.5 284 Z " /><path fill="rgb(225,221,205)" stroke="rgb(225,221,205)" stroke-width="1" opacity="1" d="M 245.5 285 L 246 288.5 L 245 288.5 L 245.5 285 Z " /><path fill="rgb(225,221,205)" stroke="rgb(225,221,205)" stroke-width="1" opacity="1" d="M 612.5 287 L 613 291.5 L 612 291.5 L 612.5 287 Z " /><path fill="rgb(225,221,205)" stroke="rgb(225,221,205)" stroke-width="1" opacity="1" d="M 193.5 289 L 197 290.5 L 195.5 290 Q 192.5 290.5 193.5 289 Z " /><path fill="rgb(225,221,205)" stroke="rgb(225,221,205)" stroke-width="1" opacity="1" d="M 264.5 289 L 266 292.5 L 265 292.5 L 264.5 289 Z " /><path fill="rgb(225,221,205)" stroke="rgb(225,221,205)" stroke-width="1" opacity="1" d="M 244.5 293 L 245 295.5 L 244 295.5 L 244.5 293 Z " /><path fill="rgb(225,221,205)" stroke="rgb(225,221,205)" stroke-width="1" opacity="1" d="M 150.5 294 L 151.5 296 L 150.5 294 Z " /><path fill="rgb(225,221,205)" stroke="rgb(225,221,205)" stroke-width="1" opacity="1" d="M 613.5 295 L 614 297.5 L 613 297.5 L 613.5 295 Z " /><path fill="rgb(225,221,205)" stroke="rgb(225,221,205)" stroke-width="1" opacity="1" d="M 169.5 298 L 172 298.5 L 169.5 299 L 169.5 298 Z " /><path fill="rgb(225,221,205)" stroke="rgb(225,221,205)" stroke-width="1" opacity="1" d="M 243.5 302 L 244 313.5 L 243 313.5 L 243.5 302 Z " /><path fill="rgb(225,221,205)" stroke="rgb(225,221,205)" stroke-width="1" opacity="1" d="M 272.5 308 L 274 311.5 L 273 311.5 L 272.5 308 Z " /><path fill="rgb(225,221,205)" stroke="rgb(225,221,205)" stroke-width="1" opacity="1" d="M 118.5 313 L 120.5 316 L 118.5 313 Z " /><path fill="rgb(225,221,205)" stroke="rgb(225,221,205)" stroke-width="1" opacity="1" d="M 274.5 313 L 277 316.5 L 277 319.5 L 289 348 L 293.5 347 L 322.5 327 L 324.5 327 L 328 331.5 L 357 391.5 L 359.5 394 L 362 392.5 L 393.5 350 L 396.5 350 L 440.5 372 L 462.5 350 L 465 350 L 498.5 406 L 544.5 338 L 547.5 338 L 574.5 348 L 579.5 348 L 582.5 341 L 583 343.5 L 582 347.5 L 579.5 350 L 558.5 344 L 550.5 340 L 544 340 L 529 365 Q 526.3 363.9 527 366.5 L 509 392.5 L 505 401 Q 502.3 399.9 503 402.5 L 499.5 407 Q 495.5 407.5 495 404.5 L 495 402.5 L 484 386.5 L 483 382.5 L 467 357.5 L 465 352 L 462.5 352 L 441.5 373 L 438.5 373 L 394.5 351 L 359.5 396 Q 357.3 396.8 358 394.5 L 336 352.5 L 325 328 L 304.5 340 L 291.5 350 L 289.5 350 L 276 320.5 L 274.5 313 Z " /><path fill="rgb(225,221,205)" stroke="rgb(225,221,205)" stroke-width="1" opacity="1" d="M 77.5 318 L 79 318.5 L 76.5 320 L 77.5 318 Z " /><path fill="rgb(225,221,205)" stroke="rgb(225,221,205)" stroke-width="1" opacity="1" d="M 613.5 319 L 614 322.5 L 613 322.5 L 613.5 319 Z " /><path fill="rgb(225,221,205)" stroke="rgb(225,221,205)" stroke-width="1" opacity="1" d="M 113.5 322 L 114 325.5 L 113 325.5 L 113.5 322 Z " /><path fill="rgb(225,221,205)" stroke="rgb(225,221,205)" stroke-width="1" opacity="1" d="M 90.5 325 L 92.5 328 L 90.5 325 Z " /><path fill="rgb(225,221,205)" stroke="rgb(225,221,205)" stroke-width="1" opacity="1" d="M 612.5 327 L 613 331.5 L 612 331.5 L 612.5 327 Z " /><path fill="rgb(225,221,205)" stroke="rgb(225,221,205)" stroke-width="1" opacity="1" d="M 245.5 328 L 246 331.5 L 245 331.5 L 245.5 328 Z " /><path fill="rgb(225,221,205)" stroke="rgb(225,221,205)" stroke-width="1" opacity="1" d="M 81.5 331 L 82.5 333 L 81.5 331 Z " /><path fill="rgb(225,221,205)" stroke="rgb(225,221,205)" stroke-width="1" opacity="1" d="M 121.5 331 L 122 334.5 L 121 334.5 L 121.5 331 Z " /><path fill="rgb(225,221,205)" stroke="rgb(225,221,205)" stroke-width="1" opacity="1" d="M 102.5 337 L 105.5 341 L 102.5 337 Z " /><path fill="rgb(225,221,205)" stroke="rgb(225,221,205)" stroke-width="1" opacity="1" d="M 248.5 344 L 249 346.5 L 248 346.5 L 248.5 344 Z " /><path fill="rgb(225,221,205)" stroke="rgb(225,221,205)" stroke-width="1" opacity="1" d="M 80.5 354 L 85 354.5 L 80.5 355 L 80.5 354 Z " /><path fill="rgb(225,221,205)" stroke="rgb(225,221,205)" stroke-width="1" opacity="1" d="M 78.5 362 L 84 362.5 L 78.5 363 L 78.5 362 Z " /><path fill="rgb(225,221,205)" stroke="rgb(225,221,205)" stroke-width="1" opacity="1" d="M 104.5 363 L 107 363.5 L 104.5 364 L 104.5 363 Z " /><path fill="rgb(225,221,205)" stroke="rgb(225,221,205)" stroke-width="1" opacity="1" d="M 123.5 364 L 124 366.5 L 123 366.5 L 123.5 364 Z " /><path fill="rgb(225,221,205)" stroke="rgb(225,221,205)" stroke-width="1" opacity="1" d="M 603.5 364 L 604 365.5 L 602.5 368 L 602 366.5 L 603.5 364 Z " /><path fill="rgb(225,221,205)" stroke="rgb(225,221,205)" stroke-width="1" opacity="1" d="M 118.5 369 L 121 369.5 L 118.5 370 L 118.5 369 Z " /><path fill="rgb(225,221,205)" stroke="rgb(225,221,205)" stroke-width="1" opacity="1" d="M 600.5 371 L 601 372.5 L 597.5 379 L 597 377.5 L 600.5 371 Z " /><path fill="rgb(225,221,205)" stroke="rgb(225,221,205)" stroke-width="1" opacity="1" d="M 259.5 376 L 261 378.5 L 260 378.5 L 259.5 376 Z " /><path fill="rgb(225,221,205)" stroke="rgb(225,221,205)" stroke-width="1" opacity="1" d="M 261.5 380 L 266 387.5 L 264 386.5 L 261.5 380 Z " /><path fill="rgb(225,221,205)" stroke="rgb(225,221,205)" stroke-width="1" opacity="1" d="M 596.5 380 L 596 381.5 L 593.5 386 L 594 384.5 L 596.5 380 Z " /><path fill="rgb(225,221,205)" stroke="rgb(225,221,205)" stroke-width="1" opacity="1" d="M 266.5 389 L 269 392.5 L 267 391.5 L 266.5 389 Z " /><path fill="rgb(225,221,205)" stroke="rgb(225,221,205)" stroke-width="1" opacity="1" d="M 591.5 389 L 590 391.5 L 588.5 394 L 589 392.5 L 591.5 389 Z " /><path fill="rgb(225,221,205)" stroke="rgb(225,221,205)" stroke-width="1" opacity="1" d="M 269.5 394 L 274 399.5 L 271 397.5 L 269.5 394 Z " /><path fill="rgb(225,221,205)" stroke="rgb(225,221,205)" stroke-width="1" opacity="1" d="M 587.5 395 L 586.5 397 L 587.5 395 Z " /><path fill="rgb(225,221,205)" stroke="rgb(225,221,205)" stroke-width="1" opacity="1" d="M 590.5 397 L 589.5 399 L 590.5 397 Z " /><path fill="rgb(225,221,205)" stroke="rgb(225,221,205)" stroke-width="1" opacity="1" d="M 585.5 398 L 584 400.5 L 580.5 405 L 583 401.5 L 585.5 398 Z " /><path fill="rgb(225,221,205)" stroke="rgb(225,221,205)" stroke-width="1" opacity="1" d="M 274.5 401 L 275.5 403 L 274.5 401 Z " /><path fill="rgb(225,221,205)" stroke="rgb(225,221,205)" stroke-width="1" opacity="1" d="M 586.5 402 L 584.5 405 L 586.5 402 Z " /><path fill="rgb(225,221,205)" stroke="rgb(225,221,205)" stroke-width="1" opacity="1" d="M 276.5 404 L 279.5 408 L 276.5 404 Z " /><path fill="rgb(225,221,205)" stroke="rgb(225,221,205)" stroke-width="1" opacity="1" d="M 579.5 406 L 576.5 410 L 579.5 406 Z " /><path fill="rgb(225,221,205)" stroke="rgb(225,221,205)" stroke-width="1" opacity="1" d="M 280.5 409 L 285.5 415 L 280.5 409 Z " /><path fill="rgb(225,221,205)" stroke="rgb(225,221,205)" stroke-width="1" opacity="1" d="M 579.5 410 L 567.5 423 L 579.5 410 Z " /><path fill="rgb(225,221,205)" stroke="rgb(225,221,205)" stroke-width="1" opacity="1" d="M 575.5 411 L 561 426.5 Q 563.7 428.2 559.5 430 L 558.5 429 L 556 430.5 L 575.5 411 Z " /><path fill="rgb(225,221,205)" stroke="rgb(225,221,205)" stroke-width="1" opacity="1" d="M 277.5 412 L 285.5 421 L 277.5 412 Z " /><path fill="rgb(225,221,205)" stroke="rgb(225,221,205)" stroke-width="1" opacity="1" d="M 288.5 418 L 294.5 425 L 288.5 418 Z " /><path fill="rgb(225,221,205)" stroke="rgb(225,221,205)" stroke-width="1" opacity="1" d="M 297.5 426 L 302.5 432 L 297.5 426 Z " /><path fill="rgb(225,221,205)" stroke="rgb(225,221,205)" stroke-width="1" opacity="1" d="M 293.5 427 L 294.5 429 L 293.5 427 Z " /><path fill="rgb(225,221,205)" stroke="rgb(225,221,205)" stroke-width="1" opacity="1" d="M 554.5 431 Q 557.5 432.5 554.5 434 L 553.5 433 L 551 434.5 L 554.5 431 Z " /><path fill="rgb(225,221,205)" stroke="rgb(225,221,205)" stroke-width="1" opacity="1" d="M 304.5 432 L 307.5 436 L 304.5 432 Z " /><path fill="rgb(225,221,205)" stroke="rgb(225,221,205)" stroke-width="1" opacity="1" d="M 309.5 436 L 311.5 439 L 309.5 436 Z " /><path fill="rgb(225,221,205)" stroke="rgb(225,221,205)" stroke-width="1" opacity="1" d="M 548.5 436 L 548 437.5 L 546.5 440 Q 545.3 437.7 544 440.5 L 543.5 442 L 543 440.5 L 548.5 436 Z " /><path fill="rgb(225,221,205)" stroke="rgb(225,221,205)" stroke-width="1" opacity="1" d="M 313.5 439 L 315.5 442 L 313.5 439 Z " /><path fill="rgb(225,221,205)" stroke="rgb(225,221,205)" stroke-width="1" opacity="1" d="M 541.5 441 L 541 442.5 Q 541.8 444.8 539.5 444 Q 512 464 472.5 472 L 472.5 471 L 486.5 468 L 513.5 458 L 533.5 447 L 541.5 441 Z " /><path fill="rgb(225,221,205)" stroke="rgb(225,221,205)" stroke-width="1" opacity="1" d="M 317.5 442 L 318.5 444 L 317.5 442 Z " /><path fill="rgb(225,221,205)" stroke="rgb(225,221,205)" stroke-width="1" opacity="1" d="M 320.5 444 L 321.5 446 L 320.5 444 Z " /><path fill="rgb(225,221,205)" stroke="rgb(225,221,205)" stroke-width="1" opacity="1" d="M 323.5 446 L 327 448.5 L 325.5 448 L 323.5 446 Z " /><path fill="rgb(225,221,205)" stroke="rgb(225,221,205)" stroke-width="1" opacity="1" d="M 328.5 449 L 334 452.5 L 332.5 452 Q 328.5 451.5 328.5 449 Z " /><path fill="rgb(225,221,205)" stroke="rgb(225,221,205)" stroke-width="1" opacity="1" d="M 345.5 458 L 349 459.5 L 346.5 461 L 346.5 459 L 345.5 458 Z " /><path fill="rgb(225,221,205)" stroke="rgb(225,221,205)" stroke-width="1" opacity="1" d="M 350.5 460 L 354 461.5 L 352.5 462 L 350.5 460 Z " /><path fill="rgb(225,221,205)" stroke="rgb(225,221,205)" stroke-width="1" opacity="1" d="M 357.5 463 L 359 463.5 L 356.5 465 L 357.5 463 Z " /><path fill="rgb(225,221,205)" stroke="rgb(225,221,205)" stroke-width="1" opacity="1" d="M 360.5 464 L 359.5 466 L 360.5 464 Z " /><path fill="rgb(225,221,205)" stroke="rgb(225,221,205)" stroke-width="1" opacity="1" d="M 363.5 465 L 368 466.5 L 365.5 468 L 365 466 L 362.5 467 L 363.5 465 Z " /><path fill="rgb(225,221,205)" stroke="rgb(225,221,205)" stroke-width="1" opacity="1" d="M 369.5 467 L 371 467.5 L 368.5 469 L 369.5 467 Z " /><path fill="rgb(225,221,205)" stroke="rgb(225,221,205)" stroke-width="1" opacity="1" d="M 372 468 L 378 469.5 L 375.5 471 L 375 469 L 372.5 470 L 372 468 Z " /><path fill="rgb(225,221,205)" stroke="rgb(225,221,205)" stroke-width="1" opacity="1" d="M 379 470 L 382 470.5 L 379.5 472 L 379 470 Z " /><path fill="rgb(225,221,205)" stroke="rgb(225,221,205)" stroke-width="1" opacity="1" d="M 383.5 471 L 386 471.5 Q 383.9 474.8 383.5 471 Z " /><path fill="rgb(225,221,205)" stroke="rgb(225,221,205)" stroke-width="1" opacity="1" d="M 388.5 472 L 392 472.5 L 389.5 474 L 388.5 472 Z " /><path fill="rgb(225,221,205)" stroke="rgb(225,221,205)" stroke-width="1" opacity="1" d="M 466.5 472 L 471 472.5 L 450.5 476 L 451.5 474 L 465.5 473 L 466.5 472 Z " /><path fill="rgb(225,221,205)" stroke="rgb(225,221,205)" stroke-width="1" opacity="1" d="M 393.5 473 L 400 473.5 L 394.5 475 L 393.5 473 Z " /><path fill="rgb(225,221,205)" stroke="rgb(225,221,205)" stroke-width="1" opacity="1" d="M 401 474 L 406 474.5 L 401 476 L 401 474 Z " /><path fill="rgb(225,221,205)" stroke="rgb(225,221,205)" stroke-width="1" opacity="1" d="M 412.5 475 L 447 475.5 L 441.5 477 L 440.5 476 L 414.5 476 L 411.5 477 L 412.5 475 Z " /><path fill="rgb(224,231,236)" stroke="rgb(224,231,236)" stroke-width="1" opacity="1" d="M 604.5 28 L 605 30.5 L 604 30.5 L 604.5 28 Z " /><path fill="rgb(224,231,236)" stroke="rgb(224,231,236)" stroke-width="1" opacity="1" d="M 408.5 41 L 406.5 44 L 408.5 41 Z " /><path fill="rgb(224,231,236)" stroke="rgb(224,231,236)" stroke-width="1" opacity="1" d="M 418.5 62 L 417.5 64 L 418.5 62 Z " /><path fill="rgb(224,231,236)" stroke="rgb(224,231,236)" stroke-width="1" opacity="1" d="M 424.5 62 L 425.5 64 L 424.5 62 Z " /><path fill="rgb(224,231,236)" stroke="rgb(224,231,236)" stroke-width="1" opacity="1" d="M 647.5 62 L 646.5 64 L 647.5 62 Z " /><path fill="rgb(224,231,236)" stroke="rgb(224,231,236)" stroke-width="1" opacity="1" d="M 593.5 84 L 594.5 86 L 593.5 84 Z " /><path fill="rgb(224,231,236)" stroke="rgb(224,231,236)" stroke-width="1" opacity="1" d="M 709.5 129 L 708.5 131 L 709.5 129 Z " /><path fill="rgb(224,231,236)" stroke="rgb(224,231,236)" stroke-width="1" opacity="1" d="M 651.5 143 L 652 147.5 L 651 147.5 L 651.5 143 Z " /><path fill="rgb(224,231,236)" stroke="rgb(224,231,236)" stroke-width="1" opacity="1" d="M 683.5 147 L 681.5 150 L 683.5 147 Z " /><path fill="rgb(224,231,236)" stroke="rgb(224,231,236)" stroke-width="1" opacity="1" d="M 669.5 168 L 672 168.5 L 669.5 169 L 669.5 168 Z " /><path fill="rgb(224,231,236)" stroke="rgb(224,231,236)" stroke-width="1" opacity="1" d="M 251.5 263 L 264 288.5 L 276 317.5 L 276 320.5 L 289.5 350 L 291.5 350 L 304.5 340 L 325 328 L 358 396 L 365 390.5 L 394.5 351 L 438.5 373 L 441.5 373 L 462.5 352 L 465 352 L 467 357.5 L 483 382.5 L 484 386.5 L 497.5 407 L 501 405.5 L 503 401 Q 505.7 402.1 505 399.5 L 526 368.5 L 527 365 Q 529.7 366.1 529 363.5 L 544 340 L 550.5 340 L 558.5 344 L 579.5 350 L 582 347.5 L 583 340.5 L 591 316.5 L 608.5 270 L 613 292.5 L 612 294.5 L 614 300.5 L 614 302.5 L 614 314.5 L 613 316.5 L 614 318.5 L 612 324.5 L 613 326.5 L 608 351.5 L 597 379.5 Q 580.7 409.7 555.5 431 Q 536.8 446.8 513.5 458 L 486.5 468 L 465.5 473 L 463.5 472 L 460.5 473 L 449.5 475 L 446.5 474 L 445.5 475 L 413.5 475 L 409.5 474 L 406.5 475 L 399.5 473 L 386.5 472 L 372.5 467 L 370.5 467 L 361.5 465 L 357.5 462 L 355.5 462 Q 314.7 446.8 288 417.5 L 286 414.5 Q 270.8 399.7 261 379.5 L 252 358.5 L 246 335.5 L 246 333.5 L 244 320.5 L 244 318.5 L 244 296.5 L 245 295.5 L 247 277.5 L 251.5 263 Z " /><path fill="rgb(224,231,236)" stroke="rgb(224,231,236)" stroke-width="1" opacity="1" d="M 154.5 294 L 153.5 296 L 154.5 294 Z " /><path fill="rgb(224,231,236)" stroke="rgb(224,231,236)" stroke-width="1" opacity="1" d="M 83.5 333 L 84.5 335 L 83.5 333 Z " /><path fill="rgb(224,231,236)" stroke="rgb(224,231,236)" stroke-width="1" opacity="1" d="M 75.5 362 L 78 362.5 L 75.5 363 L 75.5 362 Z " /><path fill="rgb(224,231,236)" stroke="rgb(224,231,236)" stroke-width="1" opacity="1" d="M 96.5 363 L 101 363.5 L 96.5 364 L 96.5 363 Z " /></svg>